<svg width="133" height="109" viewBox="0 0 133 109" fill="none" xmlns="http://www.w3.org/2000/svg">
<rect x="0.153809" y="0.734863" width="132.846" height="44" rx="6.76923" fill="white" fill-opacity="0.1"/>
<path d="M66.9574 24.3647C64.7682 24.3647 62.9839 26.0298 62.9839 28.3232C62.9839 30.6027 64.7682 32.2818 66.9574 32.2818C69.1475 32.2818 70.9318 30.6027 70.9318 28.3232C70.9308 26.0298 69.1466 24.3647 66.9574 24.3647ZM66.9574 30.7237C65.7576 30.7237 64.7236 29.7343 64.7236 28.3242C64.7236 26.8992 65.7586 25.9246 66.9574 25.9246C68.1572 25.9246 69.1912 26.8992 69.1912 28.3242C69.1912 29.7333 68.1572 30.7237 66.9574 30.7237ZM58.2882 24.3647C56.099 24.3647 54.3148 26.0298 54.3148 28.3232C54.3148 30.6027 56.099 32.2818 58.2882 32.2818C60.4783 32.2818 62.2626 30.6027 62.2626 28.3232C62.2626 26.0298 60.4783 24.3647 58.2882 24.3647ZM58.2882 30.7237C57.0884 30.7237 56.0544 29.7343 56.0544 28.3242C56.0544 26.8992 57.0894 25.9246 58.2882 25.9246C59.488 25.9246 60.5221 26.8992 60.5221 28.3242C60.523 29.7333 59.488 30.7237 58.2882 30.7237ZM47.9772 25.5803V27.2594H51.9962C51.8761 28.2041 51.5615 28.8938 51.0813 29.3731C50.4967 29.9577 49.5818 30.6027 47.9772 30.6027C45.5032 30.6027 43.569 28.608 43.569 26.1341C43.569 23.6601 45.5032 21.6654 47.9772 21.6654C49.3119 21.6654 50.2864 22.1904 51.0059 22.8652L52.1907 21.6803C51.1855 20.7207 49.8517 19.9863 47.9772 19.9863C44.5882 19.9863 41.7391 22.7451 41.7391 26.1341C41.7391 29.523 44.5882 32.2818 47.9772 32.2818C49.8061 32.2818 51.1864 31.6814 52.2652 30.5571C53.3747 29.4476 53.72 27.8876 53.72 26.6283C53.72 26.2392 53.6902 25.879 53.6297 25.5793H47.9772V25.5803ZM90.1484 26.8843C89.819 26 88.8137 24.3647 86.7595 24.3647C84.7202 24.3647 83.0253 25.9693 83.0253 28.3232C83.0253 30.5422 84.7053 32.2818 86.954 32.2818C88.7681 32.2818 89.818 31.1723 90.2536 30.5273L88.904 29.6272C88.4544 30.2872 87.8392 30.7218 86.954 30.7218C86.0698 30.7218 85.4397 30.3169 85.0348 29.5221L90.3281 27.3329L90.1484 26.8843ZM84.75 28.2041C84.7053 26.6739 85.9348 25.8949 86.82 25.8949C87.5097 25.8949 88.0942 26.2402 88.2897 26.7344L84.75 28.2041ZM80.447 32.0426H82.1857V20.407H80.447V32.0426ZM77.597 25.2498H77.5374C77.1475 24.7844 76.3973 24.3647 75.4535 24.3647C73.4737 24.3647 71.6596 26.1043 71.6596 28.3391C71.6596 30.558 73.4737 32.2827 75.4535 32.2827C76.3982 32.2827 77.1475 31.8629 77.5374 31.3836H77.597V31.9532C77.597 33.4676 76.7872 34.2774 75.4832 34.2774C74.4184 34.2774 73.7585 33.5132 73.4886 32.8682L71.9742 33.4983C72.4089 34.5473 73.5631 35.8373 75.4832 35.8373C77.5226 35.8373 79.2473 34.6376 79.2473 31.7131V24.6057H77.5979V25.2498H77.597ZM75.6033 30.7237C74.4036 30.7237 73.3993 29.7185 73.3993 28.3391C73.3993 26.9438 74.4036 25.9246 75.6033 25.9246C76.7873 25.9246 77.7171 26.9438 77.7171 28.3391C77.7171 29.7185 76.7873 30.7237 75.6033 30.7237ZM98.2964 20.407H94.1349V32.0426H95.8708V27.6345H98.2955C100.22 27.6345 102.113 26.2411 102.113 24.0212C102.113 21.8013 100.221 20.407 98.2964 20.407ZM98.3411 26.0149H95.8708V22.0266H98.3411C99.6395 22.0266 100.377 23.1016 100.377 24.0212C100.377 24.9222 99.6395 26.0149 98.3411 26.0149ZM109.075 24.3442C107.817 24.3442 106.515 24.898 105.976 26.1257L107.518 26.7688C107.847 26.1257 108.461 25.9153 109.104 25.9153C110.003 25.9153 110.916 26.4542 110.931 27.412V27.5321C110.616 27.3524 109.942 27.0834 109.119 27.0834C107.458 27.0834 105.766 27.9965 105.766 29.7026C105.766 31.2598 107.128 32.2622 108.655 32.2622C109.822 32.2622 110.466 31.7382 110.87 31.1239H110.93V32.0221H112.607V27.5609C112.608 25.4965 111.065 24.3442 109.075 24.3442ZM108.864 30.7209C108.297 30.7209 107.503 30.4361 107.503 29.7324C107.503 28.8342 108.491 28.4898 109.345 28.4898C110.107 28.4898 110.467 28.6546 110.931 28.8789C110.796 29.9577 109.868 30.7209 108.864 30.7209ZM118.715 24.5983L116.724 29.6431H116.664L114.598 24.5983H112.727L115.826 31.6489L114.059 35.5711H115.87L120.646 24.5983H118.715ZM103.072 32.0426H104.808V20.407H103.072V32.0426Z" fill="white"/>
<path d="M47.6738 13.6534C47.6738 14.4334 47.4429 15.0542 46.9803 15.5177C46.4554 16.0687 45.7703 16.3442 44.9289 16.3442C44.1229 16.3442 43.4369 16.065 42.8738 15.5065C42.3097 14.9471 42.0277 14.2546 42.0277 13.4281C42.0277 12.6007 42.3097 11.9082 42.8738 11.3497C43.4369 10.7903 44.1229 10.5111 44.9289 10.5111C45.3291 10.5111 45.7117 10.5893 46.0747 10.7447C46.4386 10.9011 46.73 11.1086 46.9478 11.3683L46.4572 11.8598C46.0877 11.4177 45.5786 11.1971 44.928 11.1971C44.3397 11.1971 43.8315 11.4037 43.4025 11.817C42.9734 12.2302 42.7593 12.7673 42.7593 13.4272C42.7593 14.0871 42.9734 14.6242 43.4025 15.0374C43.8315 15.4507 44.3397 15.6573 44.928 15.6573C45.5516 15.6573 46.0719 15.4498 46.488 15.0337C46.7579 14.7628 46.9142 14.3859 46.9561 13.9028H44.928V13.2317H47.6337C47.6617 13.3779 47.6738 13.5184 47.6738 13.6534Z" fill="white"/>
<path d="M51.9647 11.3209H49.4218V13.0912H51.7152V13.7623H49.4218V15.5326H51.9647V16.2196H48.7042V10.6349H51.9647V11.3209Z" fill="white"/>
<path d="M54.9905 16.2196H54.2729V11.3209H52.7129V10.6349H56.5505V11.3209H54.9905V16.2196Z" fill="white"/>
<path d="M59.3269 16.2196V10.6349H60.0445V16.2196H59.3269Z" fill="white"/>
<path d="M63.227 16.2196H62.5094V11.3209H60.9494V10.6349H64.787V11.3209H63.227V16.2196Z" fill="white"/>
<path d="M72.0514 15.4982C71.5023 16.0622 70.82 16.3443 70.0037 16.3443C69.1874 16.3443 68.5052 16.0622 67.957 15.4982C67.4078 14.9342 67.1342 14.2435 67.1342 13.4272C67.1342 12.611 67.4078 11.9203 67.957 11.3563C68.5052 10.7922 69.1874 10.5093 70.0037 10.5093C70.8154 10.5093 71.4967 10.7932 72.0477 11.36C72.5987 11.9268 72.8742 12.6156 72.8742 13.4272C72.8742 14.2435 72.5996 14.9342 72.0514 15.4982ZM68.4866 15.03C68.8998 15.4489 69.4052 15.6574 70.0037 15.6574C70.6022 15.6574 71.1085 15.4479 71.5209 15.03C71.9341 14.6112 72.1417 14.0769 72.1417 13.4272C72.1417 12.7776 71.9341 12.2433 71.5209 11.8245C71.1085 11.4056 70.6022 11.1971 70.0037 11.1971C69.4052 11.1971 68.8998 11.4065 68.4866 11.8245C68.0742 12.2433 67.8667 12.7776 67.8667 13.4272C67.8667 14.0769 68.0742 14.6112 68.4866 15.03Z" fill="white"/>
<path d="M73.8813 16.2196V10.6349H74.7544L77.4685 14.9788H77.4992L77.4685 13.9029V10.6349H78.1861V16.2196H77.4369L74.5971 11.6644H74.5664L74.5971 12.7403V16.2196H73.8813Z" fill="white"/>
<path d="M47.6738 13.6534C47.6738 14.4334 47.4429 15.0542 46.9803 15.5177C46.4554 16.0687 45.7703 16.3442 44.9289 16.3442C44.1229 16.3442 43.4369 16.065 42.8738 15.5065C42.3097 14.9471 42.0277 14.2546 42.0277 13.4281C42.0277 12.6007 42.3097 11.9082 42.8738 11.3497C43.4369 10.7903 44.1229 10.5111 44.9289 10.5111C45.3291 10.5111 45.7117 10.5893 46.0747 10.7447C46.4386 10.9011 46.73 11.1086 46.9478 11.3683L46.4572 11.8598C46.0877 11.4177 45.5786 11.1971 44.928 11.1971C44.3397 11.1971 43.8315 11.4037 43.4025 11.817C42.9734 12.2302 42.7593 12.7673 42.7593 13.4272C42.7593 14.0871 42.9734 14.6242 43.4025 15.0374C43.8315 15.4507 44.3397 15.6573 44.928 15.6573C45.5516 15.6573 46.0719 15.4498 46.488 15.0337C46.7579 14.7628 46.9142 14.3859 46.9561 13.9028H44.928V13.2317H47.6337C47.6617 13.3779 47.6738 13.5184 47.6738 13.6534Z" stroke="white" stroke-width="0.169231" stroke-miterlimit="10"/>
<path d="M51.9647 11.3209H49.4218V13.0912H51.7152V13.7623H49.4218V15.5326H51.9647V16.2196H48.7042V10.6349H51.9647V11.3209Z" stroke="white" stroke-width="0.169231" stroke-miterlimit="10"/>
<path d="M54.9905 16.2196H54.2729V11.3209H52.7129V10.6349H56.5505V11.3209H54.9905V16.2196Z" stroke="white" stroke-width="0.169231" stroke-miterlimit="10"/>
<path d="M59.3269 16.2196V10.6349H60.0445V16.2196H59.3269Z" stroke="white" stroke-width="0.169231" stroke-miterlimit="10"/>
<path d="M63.227 16.2196H62.5094V11.3209H60.9494V10.6349H64.787V11.3209H63.227V16.2196Z" stroke="white" stroke-width="0.169231" stroke-miterlimit="10"/>
<path d="M72.0514 15.4982C71.5023 16.0622 70.82 16.3443 70.0037 16.3443C69.1874 16.3443 68.5052 16.0622 67.957 15.4982C67.4078 14.9342 67.1342 14.2435 67.1342 13.4272C67.1342 12.611 67.4078 11.9203 67.957 11.3563C68.5052 10.7922 69.1874 10.5093 70.0037 10.5093C70.8154 10.5093 71.4967 10.7932 72.0477 11.36C72.5987 11.9268 72.8742 12.6156 72.8742 13.4272C72.8742 14.2435 72.5996 14.9342 72.0514 15.4982ZM68.4866 15.03C68.8998 15.4489 69.4052 15.6574 70.0037 15.6574C70.6022 15.6574 71.1085 15.4479 71.5209 15.03C71.9341 14.6112 72.1417 14.0769 72.1417 13.4272C72.1417 12.7776 71.9341 12.2433 71.5209 11.8245C71.1085 11.4056 70.6022 11.1971 70.0037 11.1971C69.4052 11.1971 68.8998 11.4065 68.4866 11.8245C68.0742 12.2433 67.8667 12.7776 67.8667 13.4272C67.8667 14.0769 68.0742 14.6112 68.4866 15.03Z" stroke="white" stroke-width="0.169231" stroke-miterlimit="10"/>
<path d="M73.8813 16.2196V10.6349H74.7544L77.4685 14.9788H77.4992L77.4685 13.9029V10.6349H78.1861V16.2196H77.4369L74.5971 11.6644H74.5664L74.5971 12.7403V16.2196H73.8813Z" stroke="white" stroke-width="0.169231" stroke-miterlimit="10"/>
<g filter="url(#filter0_ii_1_1069)">
<path d="M13.252 11.1358C12.9811 11.4225 12.821 11.8674 12.821 12.4435V33.0284C12.821 33.6055 12.9811 34.0495 13.252 34.3362L13.3209 34.4032L24.8522 22.8719V22.736V22.6001L13.3209 11.0679L13.252 11.1358Z" fill="url(#paint0_linear_1_1069)"/>
<path d="M28.6953 26.7167L24.8522 22.8717V22.7358V22.5999L28.6962 18.7559L28.7828 18.8052L33.3371 21.3927C34.6373 22.1318 34.6373 23.3408 33.3371 24.0808L28.7828 26.6683L28.6953 26.7167Z" fill="url(#paint1_linear_1_1069)"/>
<g filter="url(#filter1_i_1_1069)">
<path d="M28.7828 26.6674L24.8512 22.7358L13.252 34.336C13.6801 34.7902 14.3884 34.8461 15.1861 34.3937L28.7828 26.6674Z" fill="url(#paint2_linear_1_1069)"/>
</g>
<path d="M28.7828 18.8043L15.1861 11.0789C14.3884 10.6256 13.6801 10.6824 13.252 11.1366L24.8521 22.7368L28.7828 18.8043Z" fill="url(#paint3_linear_1_1069)"/>
</g>
<rect x="0.153809" y="60.7349" width="129.231" height="48" rx="7.38462" fill="white" fill-opacity="0.1"/>
<path d="M86.626 83.9235V86.2498H85.1679V87.7753H86.626V92.9588C86.626 94.7288 87.4267 95.4368 89.4411 95.4368C89.7951 95.4368 90.1322 95.3947 90.4272 95.3441V93.8354C90.1744 93.8607 90.0142 93.8775 89.7361 93.8775C88.8343 93.8775 88.4381 93.4561 88.4381 92.4953V87.7753H90.4272V86.2498H88.4381V83.9235H86.626Z" fill="white"/>
<path d="M95.5588 95.5632C98.2391 95.5632 99.8827 93.768 99.8827 90.7927C99.8827 87.8343 98.2307 86.0306 95.5588 86.0306C92.8786 86.0306 91.2266 87.8343 91.2266 90.7927C91.2266 93.768 92.8702 95.5632 95.5588 95.5632ZM95.5588 93.9534C93.9827 93.9534 93.0977 92.7987 93.0977 90.7927C93.0977 88.8036 93.9827 87.6405 95.5588 87.6405C97.1265 87.6405 98.02 88.8036 98.02 90.7927C98.02 92.7903 97.1265 93.9534 95.5588 93.9534Z" fill="white"/>
<path d="M101.289 95.3862H103.101V89.9667C103.101 88.6772 104.07 87.809 105.444 87.809C105.764 87.809 106.304 87.868 106.456 87.9186V86.1318C106.262 86.0812 105.916 86.0559 105.646 86.0559C104.45 86.0559 103.43 86.7133 103.168 87.6152H103.034V86.2076H101.289V95.3862Z" fill="white"/>
<path d="M110.955 87.573C112.295 87.573 113.172 88.5086 113.214 89.9499H108.578C108.679 88.517 109.615 87.573 110.955 87.573ZM113.205 92.9083C112.868 93.6247 112.118 94.0208 111.022 94.0208C109.573 94.0208 108.637 93.001 108.578 91.3911V91.29H115.06V90.6579C115.06 87.7753 113.517 86.0306 110.963 86.0306C108.376 86.0306 106.732 87.8933 106.732 90.8264C106.732 93.7595 108.342 95.5632 110.972 95.5632C113.071 95.5632 114.537 94.5518 114.95 92.9083H113.205Z" fill="white"/>
<path d="M74.7424 91.9967C74.8821 94.2506 76.7603 95.692 79.5558 95.692C82.5435 95.692 84.413 94.1807 84.413 91.7696C84.413 89.8739 83.3472 88.8256 80.7614 88.2228L79.3724 87.8821C77.73 87.4977 77.0661 86.9823 77.0661 86.0825C77.0661 84.9469 78.0969 84.2043 79.6432 84.2043C81.1108 84.2043 82.1242 84.9294 82.3076 86.0913H84.212C84.0985 83.9684 82.229 82.4746 79.6694 82.4746C76.9176 82.4746 75.0831 83.9684 75.0831 86.2136C75.0831 88.0656 76.1226 89.1663 78.4027 89.6992L80.0276 90.0923C81.6961 90.4854 82.4299 91.062 82.4299 92.0229C82.4299 93.1411 81.2768 93.9536 79.7043 93.9536C78.0183 93.9536 76.8477 93.1935 76.6817 91.9967H74.7424Z" fill="white"/>
<path d="M55.9706 86.0559C54.7232 86.0559 53.6443 86.6796 53.0881 87.7247H52.9532V86.2076H51.2085V98.4373H53.0206V93.9955H53.1639C53.6443 94.9648 54.681 95.5379 55.9875 95.5379C58.3053 95.5379 59.7803 93.709 59.7803 90.7927C59.7803 87.8765 58.3053 86.0559 55.9706 86.0559ZM55.4565 93.9113C53.9393 93.9113 52.9869 92.7144 52.9869 90.8011C52.9869 88.8794 53.9393 87.6826 55.4649 87.6826C56.9989 87.6826 57.9176 88.8542 57.9176 90.7927C57.9176 92.7397 56.9989 93.9113 55.4565 93.9113Z" fill="white"/>
<path d="M66.1212 86.0559C64.8738 86.0559 63.7949 86.6796 63.2386 87.7247H63.1038V86.2076H61.3591V98.4373H63.1712V93.9955H63.3145C63.7949 94.9648 64.8316 95.5379 66.138 95.5379C68.4559 95.5379 69.9309 93.709 69.9309 90.7927C69.9309 87.8765 68.4559 86.0559 66.1212 86.0559ZM65.6071 93.9113C64.0899 93.9113 63.1375 92.7144 63.1375 90.8011C63.1375 88.8794 64.0899 87.6826 65.6155 87.6826C67.1495 87.6826 68.0682 88.8542 68.0682 90.7927C68.0682 92.7397 67.1495 93.9113 65.6071 93.9113Z" fill="white"/>
<path d="M47.9572 95.3862H50.0364L45.485 82.7804H43.3796L38.8282 95.3862H40.8375L41.9994 92.0404H46.8041L47.9572 95.3862ZM44.3319 85.0692H44.4804L46.3062 90.3981H42.4973L44.3319 85.0692Z" fill="white"/>
<path d="M40.0457 73.2724V79.3535H42.2413C44.0534 79.3535 45.1027 78.2367 45.1027 76.294C45.1027 74.3807 44.045 73.2724 42.2413 73.2724H40.0457ZM40.9896 74.1321H42.1359C43.396 74.1321 44.1419 74.9328 44.1419 76.3066C44.1419 77.7015 43.4086 78.4938 42.1359 78.4938H40.9896V74.1321Z" fill="white"/>
<path d="M48.3165 79.442C49.6567 79.442 50.4784 78.5444 50.4784 77.0567C50.4784 75.5775 49.6524 74.6757 48.3165 74.6757C46.9764 74.6757 46.1504 75.5775 46.1504 77.0567C46.1504 78.5444 46.9722 79.442 48.3165 79.442ZM48.3165 78.6371C47.5285 78.6371 47.086 78.0597 47.086 77.0567C47.086 76.0622 47.5285 75.4806 48.3165 75.4806C49.1004 75.4806 49.5471 76.0622 49.5471 77.0567C49.5471 78.0555 49.1004 78.6371 48.3165 78.6371Z" fill="white"/>
<path d="M57.4766 74.7642H56.5705L55.753 78.2662H55.6813L54.7373 74.7642H53.8692L52.9252 78.2662H52.8578L52.036 74.7642H51.1173L52.3816 79.3535H53.3129L54.2569 75.9737H54.3286L55.2768 79.3535H56.2165L57.4766 74.7642Z" fill="white"/>
<path d="M58.5201 79.3535H59.4261V76.669C59.4261 75.9526 59.8518 75.5059 60.5218 75.5059C61.1919 75.5059 61.5122 75.8725 61.5122 76.61V79.3535H62.4182V76.3825C62.4182 75.291 61.8535 74.6757 60.8295 74.6757C60.1383 74.6757 59.6832 74.9833 59.4598 75.4933H59.3924V74.7642H58.5201V79.3535Z" fill="white"/>
<path d="M63.8452 79.3535H64.7512V72.9731H63.8452V79.3535Z" fill="white"/>
<path d="M68.1589 79.442C69.499 79.442 70.3208 78.5444 70.3208 77.0567C70.3208 75.5775 69.4948 74.6757 68.1589 74.6757C66.8187 74.6757 65.9927 75.5775 65.9927 77.0567C65.9927 78.5444 66.8145 79.442 68.1589 79.442ZM68.1589 78.6371C67.3708 78.6371 66.9283 78.0597 66.9283 77.0567C66.9283 76.0622 67.3708 75.4806 68.1589 75.4806C68.9427 75.4806 69.3894 76.0622 69.3894 77.0567C69.3894 78.0555 68.9427 78.6371 68.1589 78.6371Z" fill="white"/>
<path d="M73.0204 78.6666C72.5274 78.6666 72.1691 78.4264 72.1691 78.0134C72.1691 77.6088 72.4557 77.3939 73.0878 77.3517L74.2088 77.2801V77.6636C74.2088 78.2325 73.7031 78.6666 73.0204 78.6666ZM72.7886 79.4294C73.3913 79.4294 73.8928 79.1681 74.1667 78.7087H74.2383V79.3535H75.1107V76.2181C75.1107 75.2488 74.4617 74.6757 73.3112 74.6757C72.2703 74.6757 71.5286 75.1814 71.4359 75.9695H72.3124C72.4136 75.645 72.7633 75.4595 73.2691 75.4595C73.8885 75.4595 74.2088 75.7335 74.2088 76.2181V76.6143L72.9656 76.6859C71.8741 76.7533 71.2589 77.2295 71.2589 78.0555C71.2589 78.8942 71.9036 79.4294 72.7886 79.4294Z" fill="white"/>
<path d="M78.1854 79.4294C78.8175 79.4294 79.3527 79.1302 79.6267 78.6287H79.6983V79.3535H80.5664V72.9731H79.6604V75.4933H79.593C79.3443 74.9876 78.8133 74.6883 78.1854 74.6883C77.0265 74.6883 76.2806 75.607 76.2806 77.0567C76.2806 78.5107 77.018 79.4294 78.1854 79.4294ZM78.4425 75.5017C79.201 75.5017 79.6772 76.1043 79.6772 77.061C79.6772 78.0218 79.2052 78.616 78.4425 78.616C77.6755 78.616 77.2161 78.0302 77.2161 77.0567C77.2161 76.0917 77.6797 75.5017 78.4425 75.5017Z" fill="white"/>
<path d="M86.4419 79.442C87.7821 79.442 88.6038 78.5444 88.6038 77.0567C88.6038 75.5775 87.7779 74.6757 86.4419 74.6757C85.1018 74.6757 84.2758 75.5775 84.2758 77.0567C84.2758 78.5444 85.0976 79.442 86.4419 79.442ZM86.4419 78.6371C85.6539 78.6371 85.2114 78.0597 85.2114 77.0567C85.2114 76.0622 85.6539 75.4806 86.4419 75.4806C87.2258 75.4806 87.6725 76.0622 87.6725 77.0567C87.6725 78.0555 87.2258 78.6371 86.4419 78.6371Z" fill="white"/>
<path d="M89.8032 79.3535H90.7093V76.669C90.7093 75.9526 91.1349 75.5059 91.805 75.5059C92.4751 75.5059 92.7953 75.8725 92.7953 76.61V79.3535H93.7014V76.3825C93.7014 75.291 93.1367 74.6757 92.1126 74.6757C91.4215 74.6757 90.9664 74.9833 90.743 75.4933H90.6756V74.7642H89.8032V79.3535Z" fill="white"/>
<path d="M97.8743 73.6221V74.7853H97.1453V75.548H97.8743V78.1398C97.8743 79.0248 98.2747 79.3788 99.2819 79.3788C99.4589 79.3788 99.6275 79.3577 99.775 79.3324V78.5781C99.6485 78.5907 99.5685 78.5992 99.4294 78.5992C98.9785 78.5992 98.7804 78.3884 98.7804 77.908V75.548H99.775V74.7853H98.7804V73.6221H97.8743Z" fill="white"/>
<path d="M100.991 79.3535H101.897V76.6732C101.897 75.9779 102.31 75.5101 103.052 75.5101C103.693 75.5101 104.034 75.881 104.034 76.6143V79.3535H104.94V76.3909C104.94 75.2994 104.337 74.6799 103.36 74.6799C102.668 74.6799 102.184 74.9876 101.96 75.5017H101.889V72.9731H100.991V79.3535Z" fill="white"/>
<path d="M108.209 75.4469C108.879 75.4469 109.317 75.9147 109.338 76.6353H107.02C107.071 75.9189 107.538 75.4469 108.209 75.4469ZM109.334 78.1145C109.165 78.4727 108.79 78.6708 108.242 78.6708C107.517 78.6708 107.05 78.1609 107.02 77.356V77.3054H110.261V76.9893C110.261 75.548 109.49 74.6757 108.213 74.6757C106.919 74.6757 106.097 75.607 106.097 77.0736C106.097 78.5402 106.902 79.442 108.217 79.442C109.266 79.442 110 78.9363 110.206 78.1145H109.334Z" fill="white"/>
<path d="M28.9959 85.0403C29.0179 83.3334 29.9346 81.7183 31.3887 80.8243C30.4714 79.5141 28.9348 78.6835 27.3362 78.6334C25.6311 78.4545 23.9781 79.6537 23.1092 79.6537C22.2235 79.6537 20.8858 78.6512 19.4452 78.6809C17.5675 78.7415 15.817 79.8091 14.9035 81.4507C12.9397 84.8506 14.4045 89.8474 16.2856 92.5956C17.2268 93.9414 18.3267 95.4446 19.766 95.3913C21.1744 95.3329 21.7004 94.4932 23.4004 94.4932C25.0847 94.4932 25.5782 95.3913 27.0467 95.3574C28.558 95.3329 29.5101 94.0057 30.4183 92.6472C31.0945 91.6883 31.6149 90.6285 31.9601 89.5071C30.184 88.7559 28.998 86.9686 28.9959 85.0403Z" fill="white"/>
<path d="M26.2222 76.8261C27.0462 75.8369 27.4522 74.5654 27.3539 73.2817C26.095 73.414 24.9321 74.0156 24.097 74.9669C23.2803 75.8963 22.8553 77.1454 22.9357 78.38C24.195 78.393 25.4331 77.8076 26.2222 76.8261Z" fill="white"/>
<defs>
<filter id="filter0_ii_1_1069" x="12.821" y="10.7661" width="21.4912" height="23.9399" filterUnits="userSpaceOnUse" color-interpolation-filters="sRGB">
<feFlood flood-opacity="0" result="BackgroundImageFix"/>
<feBlend mode="normal" in="SourceGraphic" in2="BackgroundImageFix" result="shape"/>
<feColorMatrix in="SourceAlpha" type="matrix" values="0 0 0 0 0 0 0 0 0 0 0 0 0 0 0 0 0 0 127 0" result="hardAlpha"/>
<feOffset dy="-0.126923"/>
<feComposite in2="hardAlpha" operator="arithmetic" k2="-1" k3="1"/>
<feColorMatrix type="matrix" values="0 0 0 0 0 0 0 0 0 0 0 0 0 0 0 0 0 0 0.12 0"/>
<feBlend mode="normal" in2="shape" result="effect1_innerShadow_1_1069"/>
<feColorMatrix in="SourceAlpha" type="matrix" values="0 0 0 0 0 0 0 0 0 0 0 0 0 0 0 0 0 0 127 0" result="hardAlpha"/>
<feOffset dy="0.126923"/>
<feComposite in2="hardAlpha" operator="arithmetic" k2="-1" k3="1"/>
<feColorMatrix type="matrix" values="0 0 0 0 1 0 0 0 0 1 0 0 0 0 1 0 0 0 0.25 0"/>
<feBlend mode="normal" in2="effect1_innerShadow_1_1069" result="effect2_innerShadow_1_1069"/>
</filter>
<filter id="filter1_i_1_1069" x="13.252" y="22.7358" width="15.5308" height="11.9702" filterUnits="userSpaceOnUse" color-interpolation-filters="sRGB">
<feFlood flood-opacity="0" result="BackgroundImageFix"/>
<feBlend mode="normal" in="SourceGraphic" in2="BackgroundImageFix" result="shape"/>
<feColorMatrix in="SourceAlpha" type="matrix" values="0 0 0 0 0 0 0 0 0 0 0 0 0 0 0 0 0 0 127 0" result="hardAlpha"/>
<feOffset dy="-0.126923"/>
<feComposite in2="hardAlpha" operator="arithmetic" k2="-1" k3="1"/>
<feColorMatrix type="matrix" values="0 0 0 0 0 0 0 0 0 0 0 0 0 0 0 0 0 0 0.08 0"/>
<feBlend mode="normal" in2="shape" result="effect1_innerShadow_1_1069"/>
</filter>
<linearGradient id="paint0_linear_1_1069" x1="23.83" y1="12.2257" x2="8.20983" y2="27.8459" gradientUnits="userSpaceOnUse">
<stop stop-color="#00A0FF"/>
<stop offset="0.0066" stop-color="#00A1FF"/>
<stop offset="0.2601" stop-color="#00BEFF"/>
<stop offset="0.5122" stop-color="#00D2FF"/>
<stop offset="0.7604" stop-color="#00DFFF"/>
<stop offset="1" stop-color="#00E3FF"/>
</linearGradient>
<linearGradient id="paint1_linear_1_1069" x1="35.0297" y1="22.7358" x2="12.5089" y2="22.7358" gradientUnits="userSpaceOnUse">
<stop stop-color="#FFE000"/>
<stop offset="0.4087" stop-color="#FFBD00"/>
<stop offset="0.7754" stop-color="#FFA500"/>
<stop offset="1" stop-color="#FF9C00"/>
</linearGradient>
<linearGradient id="paint2_linear_1_1069" x1="26.6477" y1="24.8709" x2="5.46477" y2="46.0538" gradientUnits="userSpaceOnUse">
<stop stop-color="#FF3A44"/>
<stop offset="1" stop-color="#C31162"/>
</linearGradient>
<linearGradient id="paint3_linear_1_1069" x1="10.3306" y1="4.28412" x2="19.7894" y2="13.7429" gradientUnits="userSpaceOnUse">
<stop stop-color="#32A071"/>
<stop offset="0.0685" stop-color="#2DA771"/>
<stop offset="0.4762" stop-color="#15CF74"/>
<stop offset="0.8009" stop-color="#06E775"/>
<stop offset="1" stop-color="#00F076"/>
</linearGradient>
</defs>
</svg>
