<svg width="592" height="463" viewBox="0 0 592 463" fill="none" xmlns="http://www.w3.org/2000/svg">
<path d="M7.61072 117.688L24.4428 110.818L40.7138 117.688L60.9122 106.81H81.1107L99.0649 117.688L113.092 106.81L122.069 88.4897L146.195 110.818L178.737 97.65L197.252 106.81L235.405 97.65L248.309 110.818L264.019 106.81H279.168L290.95 117.688H312.832L327.981 127.421L353.229 97.65L372.305 117.688L394.748 106.81L416.63 110.818L445.805 97.65L471.615 101.658L510.889 88.4897L547.359 78.7569L587.195 59.8638" stroke="url(#paint0_linear_1_307)" stroke-width="2.6" stroke-linecap="round"/>
<path d="M7.61072 246.505L24.4428 239.635L40.7138 246.505L60.9122 235.627H81.1107L99.0649 246.505L113.092 235.627L122.069 217.307L146.195 239.635L178.737 226.467L197.252 235.627L235.405 226.467L248.309 239.635L264.019 235.627H279.168L290.95 246.505H312.832L327.981 256.238L353.229 226.467L372.305 246.505L394.748 235.627L416.63 239.635L445.805 226.467L471.615 230.475L510.889 217.307L547.359 207.574L587.195 188.681" stroke="url(#paint1_linear_1_307)" stroke-width="2.6" stroke-linecap="round"/>
<path d="M7.61072 374.749L24.4428 367.879L40.7138 374.749L60.9122 363.871H81.1107L99.0649 374.749L113.092 363.871L122.069 345.551L146.195 367.879L178.737 354.711L197.252 363.871L235.405 354.711L248.309 367.879L264.019 363.871H279.168L290.95 374.749H312.832L327.981 384.482L353.229 354.711L372.305 374.749L394.748 363.871L416.63 367.879L445.805 354.711L471.615 358.719L510.889 345.551L547.359 335.818L587.195 316.925" stroke="url(#paint2_linear_1_307)" stroke-width="2.6" stroke-linecap="round"/>
<path d="M2 178.375L26.687 172.077L43.5191 178.375L59.229 172.077H75.5L99.626 178.375L117.019 164.635L140.584 172.077L152.366 164.635L173.687 172.077L192.763 164.635L216.328 172.077L237.088 164.635L252.798 172.077H261.214L272.435 158.91L282.534 172.077L297.122 164.635H312.832L334.153 172.077L357.718 158.91L379.038 172.077L392.504 164.635L415.508 178.375L432.901 172.077H464.321L482.836 164.635H505.279L519.866 158.91H563.069L590 137.726" stroke="url(#paint3_linear_1_307)" stroke-width="2.6" stroke-linecap="round"/>
<path d="M2 307.192L26.687 300.894L43.5191 307.192L59.229 300.894H75.5L99.626 307.192L117.019 293.452L140.584 300.894L152.366 293.452L173.687 300.894L192.763 293.452L216.328 300.894L237.088 293.452L252.798 300.894H261.214L272.435 287.726L282.534 300.894L297.122 293.452H312.832L334.153 300.894L357.718 287.726L379.038 300.894L392.504 293.452L415.508 307.192L432.901 300.894H464.321L482.836 293.452H505.279L519.866 287.726H563.069L590 266.543" stroke="url(#paint4_linear_1_307)" stroke-width="2.6" stroke-linecap="round"/>
<circle opacity="0.9" cx="72" cy="107.337" r="6" fill="#E79740"/>
<circle opacity="0.9" cx="56" cy="366.337" r="6" fill="#7E4BD0"/>
<circle opacity="0.9" cx="71" cy="235.337" r="6" fill="#E30278"/>
<circle opacity="0.9" cx="505" cy="294.337" r="6" fill="#3DC7C8"/>
<circle opacity="0.9" cx="519" cy="159.337" r="6" fill="#326DC9"/>
<g filter="url(#filter0_d_1_307)">
<rect x="111" y="16.8638" width="371" height="405.871" rx="16" fill="white" fill-opacity="0.05"/>
<rect x="111.5" y="17.3638" width="370" height="404.871" rx="15.5" stroke="white" stroke-opacity="0.1"/>
<path d="M147.98 67.8638V62.6638L143.36 53.8638H145.62L149.28 61.3438H148.68L152.32 53.8638H154.56L149.98 62.6638V67.8638H147.98ZM159.116 68.1038C158.17 68.1038 157.316 67.8904 156.556 67.4638C155.81 67.0238 155.216 66.4104 154.776 65.6238C154.35 64.8371 154.136 63.9238 154.136 62.8838C154.136 61.8304 154.356 60.9104 154.796 60.1238C155.236 59.3371 155.836 58.7304 156.596 58.3038C157.356 57.8638 158.203 57.6438 159.136 57.6438C160.096 57.6438 160.95 57.8638 161.696 58.3038C162.456 58.7304 163.05 59.3371 163.476 60.1238C163.916 60.8971 164.136 61.8171 164.136 62.8838C164.136 63.9238 163.916 64.8371 163.476 65.6238C163.036 66.4104 162.436 67.0238 161.676 67.4638C160.916 67.8904 160.063 68.1038 159.116 68.1038ZM159.116 66.3838C159.65 66.3838 160.136 66.2571 160.576 66.0038C161.03 65.7371 161.396 65.3438 161.676 64.8238C161.956 64.2904 162.096 63.6371 162.096 62.8638C162.096 62.0904 161.956 61.4438 161.676 60.9238C161.41 60.4038 161.05 60.0171 160.596 59.7638C160.156 59.4971 159.67 59.3638 159.136 59.3638C158.63 59.3638 158.143 59.4971 157.676 59.7638C157.223 60.0171 156.856 60.4038 156.576 60.9238C156.31 61.4438 156.176 62.0971 156.176 62.8838C156.176 63.6438 156.31 64.2904 156.576 64.8238C156.856 65.3438 157.216 65.7371 157.656 66.0038C158.11 66.2571 158.596 66.3838 159.116 66.3838ZM170.129 68.1038C169.343 68.1038 168.656 67.9438 168.069 67.6238C167.496 67.3038 167.056 66.8171 166.749 66.1638C166.443 65.5104 166.289 64.6904 166.289 63.7038V57.8838H168.289V63.5038C168.289 64.4638 168.489 65.1904 168.889 65.6838C169.289 66.1638 169.883 66.4038 170.669 66.4038C171.203 66.4038 171.683 66.2771 172.109 66.0238C172.536 65.7571 172.869 65.3838 173.109 64.9038C173.349 64.4104 173.469 63.8171 173.469 63.1238V57.8838H175.469V67.8638H173.669L173.549 66.1238C173.229 66.7371 172.769 67.2238 172.169 67.5838C171.583 67.9304 170.903 68.1038 170.129 68.1038ZM178.188 67.8638V57.8838H179.988L180.168 59.7838C180.381 59.3304 180.661 58.9504 181.008 58.6438C181.368 58.3238 181.788 58.0771 182.268 57.9038C182.748 57.7304 183.295 57.6438 183.908 57.6438V59.7438H183.288C182.861 59.7438 182.455 59.7971 182.068 59.9038C181.695 60.0104 181.368 60.1838 181.088 60.4238C180.808 60.6638 180.588 60.9904 180.428 61.4038C180.268 61.8171 180.188 62.3371 180.188 62.9638V67.8638H178.188ZM190.864 72.2638V57.8838H192.664L192.864 59.4438C193.077 59.1371 193.344 58.8438 193.664 58.5638C193.984 58.2838 194.364 58.0638 194.804 57.9038C195.257 57.7304 195.784 57.6438 196.384 57.6438C197.344 57.6438 198.184 57.8771 198.904 58.3438C199.637 58.7971 200.211 59.4171 200.624 60.2038C201.037 60.9904 201.244 61.8904 201.244 62.9038C201.244 63.9038 201.037 64.7971 200.624 65.5838C200.211 66.3704 199.637 66.9904 198.904 67.4438C198.171 67.8838 197.324 68.1038 196.364 68.1038C195.577 68.1038 194.884 67.9504 194.284 67.6438C193.684 67.3238 193.211 66.8838 192.864 66.3238V72.2638H190.864ZM196.044 66.3638C196.671 66.3638 197.224 66.2171 197.704 65.9238C198.184 65.6304 198.557 65.2238 198.824 64.7038C199.091 64.1838 199.224 63.5771 199.224 62.8838C199.224 62.1904 199.091 61.5838 198.824 61.0638C198.557 60.5304 198.184 60.1171 197.704 59.8238C197.224 59.5304 196.671 59.3838 196.044 59.3838C195.417 59.3838 194.864 59.5304 194.384 59.8238C193.904 60.1171 193.531 60.5238 193.264 61.0438C192.997 61.5638 192.864 62.1704 192.864 62.8638C192.864 63.5704 192.997 64.1838 193.264 64.7038C193.531 65.2238 193.904 65.6304 194.384 65.9238C194.864 66.2171 195.417 66.3638 196.044 66.3638ZM208.179 68.1038C207.232 68.1038 206.379 67.8904 205.619 67.4638C204.872 67.0238 204.279 66.4104 203.839 65.6238C203.412 64.8371 203.199 63.9238 203.199 62.8838C203.199 61.8304 203.419 60.9104 203.859 60.1238C204.299 59.3371 204.899 58.7304 205.659 58.3038C206.419 57.8638 207.265 57.6438 208.199 57.6438C209.159 57.6438 210.012 57.8638 210.759 58.3038C211.519 58.7304 212.112 59.3371 212.539 60.1238C212.979 60.8971 213.199 61.8171 213.199 62.8838C213.199 63.9238 212.979 64.8371 212.539 65.6238C212.099 66.4104 211.499 67.0238 210.739 67.4638C209.979 67.8904 209.125 68.1038 208.179 68.1038ZM208.179 66.3838C208.712 66.3838 209.199 66.2571 209.639 66.0038C210.092 65.7371 210.459 65.3438 210.739 64.8238C211.019 64.2904 211.159 63.6371 211.159 62.8638C211.159 62.0904 211.019 61.4438 210.739 60.9238C210.472 60.4038 210.112 60.0171 209.659 59.7638C209.219 59.4971 208.732 59.3638 208.199 59.3638C207.692 59.3638 207.205 59.4971 206.739 59.7638C206.285 60.0171 205.919 60.4038 205.639 60.9238C205.372 61.4438 205.239 62.0971 205.239 62.8838C205.239 63.6438 205.372 64.2904 205.639 64.8238C205.919 65.3438 206.279 65.7371 206.719 66.0038C207.172 66.2571 207.659 66.3838 208.179 66.3838ZM215.532 67.8638V57.8838H217.332L217.512 59.7838C217.725 59.3304 218.005 58.9504 218.352 58.6438C218.712 58.3238 219.132 58.0771 219.612 57.9038C220.092 57.7304 220.639 57.6438 221.252 57.6438V59.7438H220.632C220.205 59.7438 219.799 59.7971 219.412 59.9038C219.039 60.0104 218.712 60.1838 218.432 60.4238C218.152 60.6638 217.932 60.9904 217.772 61.4038C217.612 61.8171 217.532 62.3371 217.532 62.9638V67.8638H215.532ZM227.21 67.8638C226.57 67.8638 226.017 67.7638 225.55 67.5638C225.084 67.3638 224.724 67.0304 224.47 66.5638C224.217 66.0971 224.09 65.4638 224.09 64.6638V59.5638H222.37V57.8838H224.09L224.35 55.3838H226.09V57.8838H228.93V59.5638H226.09V64.6838C226.09 65.2571 226.21 65.6504 226.45 65.8638C226.69 66.0638 227.104 66.1638 227.69 66.1638H228.83V67.8638H227.21ZM231.638 67.8638V56.4238C231.638 55.7304 231.751 55.1638 231.978 54.7238C232.218 54.2838 232.564 53.9638 233.018 53.7638C233.471 53.5638 234.018 53.4638 234.658 53.4638H235.758V55.1638H234.978C234.498 55.1638 234.151 55.2638 233.938 55.4638C233.738 55.6504 233.638 55.9838 233.638 56.4638V67.8638H231.638ZM230.178 59.5638V57.8838H235.998V59.5638H230.178ZM242.222 68.1038C241.275 68.1038 240.422 67.8904 239.662 67.4638C238.915 67.0238 238.322 66.4104 237.882 65.6238C237.455 64.8371 237.242 63.9238 237.242 62.8838C237.242 61.8304 237.462 60.9104 237.902 60.1238C238.342 59.3371 238.942 58.7304 239.702 58.3038C240.462 57.8638 241.308 57.6438 242.242 57.6438C243.202 57.6438 244.055 57.8638 244.802 58.3038C245.562 58.7304 246.155 59.3371 246.582 60.1238C247.022 60.8971 247.242 61.8171 247.242 62.8838C247.242 63.9238 247.022 64.8371 246.582 65.6238C246.142 66.4104 245.542 67.0238 244.782 67.4638C244.022 67.8904 243.168 68.1038 242.222 68.1038ZM242.222 66.3838C242.755 66.3838 243.242 66.2571 243.682 66.0038C244.135 65.7371 244.502 65.3438 244.782 64.8238C245.062 64.2904 245.202 63.6371 245.202 62.8638C245.202 62.0904 245.062 61.4438 244.782 60.9238C244.515 60.4038 244.155 60.0171 243.702 59.7638C243.262 59.4971 242.775 59.3638 242.242 59.3638C241.735 59.3638 241.248 59.4971 240.782 59.7638C240.328 60.0171 239.962 60.4038 239.682 60.9238C239.415 61.4438 239.282 62.0971 239.282 62.8838C239.282 63.6438 239.415 64.2904 239.682 64.8238C239.962 65.3438 240.322 65.7371 240.762 66.0038C241.215 66.2571 241.702 66.3838 242.222 66.3838ZM249.575 67.8638V53.4638H251.575V67.8638H249.575ZM254.441 67.8638V57.8838H256.441V67.8638H254.441ZM255.441 55.9438C255.068 55.9438 254.755 55.8238 254.501 55.5838C254.248 55.3438 254.121 55.0371 254.121 54.6638C254.121 54.3038 254.248 54.0104 254.501 53.7838C254.755 53.5438 255.068 53.4238 255.441 53.4238C255.815 53.4238 256.128 53.5438 256.381 53.7838C256.635 54.0104 256.761 54.3038 256.761 54.6638C256.761 55.0371 256.635 55.3438 256.381 55.5838C256.128 55.8238 255.815 55.9438 255.441 55.9438ZM263.901 68.1038C262.955 68.1038 262.101 67.8904 261.341 67.4638C260.595 67.0238 260.001 66.4104 259.561 65.6238C259.135 64.8371 258.921 63.9238 258.921 62.8838C258.921 61.8304 259.141 60.9104 259.581 60.1238C260.021 59.3371 260.621 58.7304 261.381 58.3038C262.141 57.8638 262.988 57.6438 263.921 57.6438C264.881 57.6438 265.735 57.8638 266.481 58.3038C267.241 58.7304 267.835 59.3371 268.261 60.1238C268.701 60.8971 268.921 61.8171 268.921 62.8838C268.921 63.9238 268.701 64.8371 268.261 65.6238C267.821 66.4104 267.221 67.0238 266.461 67.4638C265.701 67.8904 264.848 68.1038 263.901 68.1038ZM263.901 66.3838C264.435 66.3838 264.921 66.2571 265.361 66.0038C265.815 65.7371 266.181 65.3438 266.461 64.8238C266.741 64.2904 266.881 63.6371 266.881 62.8638C266.881 62.0904 266.741 61.4438 266.461 60.9238C266.195 60.4038 265.835 60.0171 265.381 59.7638C264.941 59.4971 264.455 59.3638 263.921 59.3638C263.415 59.3638 262.928 59.4971 262.461 59.7638C262.008 60.0171 261.641 60.4038 261.361 60.9238C261.095 61.4438 260.961 62.0971 260.961 62.8838C260.961 63.6438 261.095 64.2904 261.361 64.8238C261.641 65.3438 262.001 65.7371 262.441 66.0038C262.895 66.2571 263.381 66.3838 263.901 66.3838ZM276.512 67.8638V57.8838H278.512V67.8638H276.512ZM277.512 55.9438C277.138 55.9438 276.825 55.8238 276.572 55.5838C276.318 55.3438 276.192 55.0371 276.192 54.6638C276.192 54.3038 276.318 54.0104 276.572 53.7838C276.825 53.5438 277.138 53.4238 277.512 53.4238C277.885 53.4238 278.198 53.5438 278.452 53.7838C278.705 54.0104 278.832 54.3038 278.832 54.6638C278.832 55.0371 278.705 55.3438 278.452 55.5838C278.198 55.8238 277.885 55.9438 277.512 55.9438ZM285.272 68.1038C284.445 68.1038 283.705 67.9638 283.052 67.6838C282.412 67.4038 281.898 67.0104 281.512 66.5038C281.138 65.9971 280.912 65.4104 280.832 64.7438H282.852C282.932 65.0504 283.072 65.3371 283.272 65.6038C283.472 65.8704 283.738 66.0838 284.072 66.2438C284.405 66.4038 284.805 66.4838 285.272 66.4838C285.712 66.4838 286.072 66.4238 286.352 66.3038C286.632 66.1704 286.838 65.9971 286.972 65.7838C287.105 65.5704 287.172 65.3371 287.172 65.0838C287.172 64.7238 287.078 64.4504 286.892 64.2638C286.718 64.0771 286.452 63.9304 286.092 63.8238C285.745 63.7038 285.325 63.5904 284.832 63.4838C284.405 63.4038 283.978 63.2971 283.552 63.1638C283.125 63.0304 282.738 62.8571 282.392 62.6438C282.045 62.4304 281.765 62.1638 281.552 61.8438C281.338 61.5238 281.232 61.1304 281.232 60.6638C281.232 60.0771 281.385 59.5571 281.692 59.1038C281.998 58.6504 282.432 58.2971 282.992 58.0438C283.552 57.7771 284.218 57.6438 284.992 57.6438C286.098 57.6438 286.992 57.9104 287.672 58.4438C288.365 58.9638 288.765 59.7171 288.872 60.7038H286.952C286.885 60.2504 286.678 59.8971 286.332 59.6438C285.998 59.3904 285.552 59.2638 284.992 59.2638C284.418 59.2638 283.978 59.3771 283.672 59.6038C283.378 59.8304 283.232 60.1304 283.232 60.5038C283.232 60.7438 283.318 60.9571 283.492 61.1438C283.678 61.3171 283.938 61.4704 284.272 61.6038C284.618 61.7238 285.025 61.8304 285.492 61.9238C286.172 62.0704 286.785 62.2438 287.332 62.4438C287.892 62.6304 288.345 62.9171 288.692 63.3038C289.038 63.6771 289.212 64.2238 289.212 64.9438C289.225 65.5704 289.065 66.1238 288.732 66.6038C288.412 67.0704 287.958 67.4371 287.372 67.7038C286.785 67.9704 286.085 68.1038 285.272 68.1038ZM300.344 68.1038C299.558 68.1038 298.871 67.9438 298.284 67.6238C297.711 67.3038 297.271 66.8171 296.964 66.1638C296.658 65.5104 296.504 64.6904 296.504 63.7038V57.8838H298.504V63.5038C298.504 64.4638 298.704 65.1904 299.104 65.6838C299.504 66.1638 300.098 66.4038 300.884 66.4038C301.418 66.4038 301.898 66.2771 302.324 66.0238C302.751 65.7571 303.084 65.3838 303.324 64.9038C303.564 64.4104 303.684 63.8171 303.684 63.1238V57.8838H305.684V67.8638H303.884L303.764 66.1238C303.444 66.7371 302.984 67.2238 302.384 67.5838C301.798 67.9304 301.118 68.1038 300.344 68.1038ZM308.403 72.2638V57.8838H310.203L310.403 59.4438C310.616 59.1371 310.883 58.8438 311.203 58.5638C311.523 58.2838 311.903 58.0638 312.343 57.9038C312.796 57.7304 313.323 57.6438 313.923 57.6438C314.883 57.6438 315.723 57.8771 316.443 58.3438C317.176 58.7971 317.75 59.4171 318.163 60.2038C318.576 60.9904 318.783 61.8904 318.783 62.9038C318.783 63.9038 318.576 64.7971 318.163 65.5838C317.75 66.3704 317.176 66.9904 316.443 67.4438C315.71 67.8838 314.863 68.1038 313.903 68.1038C313.116 68.1038 312.423 67.9504 311.823 67.6438C311.223 67.3238 310.75 66.8838 310.403 66.3238V72.2638H308.403ZM313.583 66.3638C314.21 66.3638 314.763 66.2171 315.243 65.9238C315.723 65.6304 316.096 65.2238 316.363 64.7038C316.63 64.1838 316.763 63.5771 316.763 62.8838C316.763 62.1904 316.63 61.5838 316.363 61.0638C316.096 60.5304 315.723 60.1171 315.243 59.8238C314.763 59.5304 314.21 59.3838 313.583 59.3838C312.956 59.3838 312.403 59.5304 311.923 59.8238C311.443 60.1171 311.07 60.5238 310.803 61.0438C310.536 61.5638 310.403 62.1704 310.403 62.8638C310.403 63.5704 310.536 64.1838 310.803 64.7038C311.07 65.2238 311.443 65.6304 311.923 65.9238C312.403 66.2171 312.956 66.3638 313.583 66.3638Z" fill="white"/>
<path d="M326.055 67.8638V66.4238C326.975 65.7038 327.848 64.9771 328.675 64.2438C329.515 63.5104 330.262 62.7838 330.915 62.0638C331.568 61.3304 332.082 60.6171 332.455 59.9238C332.842 59.2171 333.035 58.5438 333.035 57.9038C333.035 57.4504 332.955 57.0304 332.795 56.6438C332.635 56.2571 332.382 55.9438 332.035 55.7038C331.688 55.4504 331.222 55.3238 330.635 55.3238C330.062 55.3238 329.582 55.4504 329.195 55.7038C328.822 55.9571 328.535 56.2971 328.335 56.7238C328.148 57.1371 328.055 57.5971 328.055 58.1038H326.135C326.148 57.1438 326.348 56.3304 326.735 55.6638C327.135 54.9971 327.675 54.4904 328.355 54.1438C329.048 53.7971 329.822 53.6238 330.675 53.6238C331.555 53.6238 332.322 53.7904 332.975 54.1238C333.628 54.4438 334.135 54.9171 334.495 55.5438C334.855 56.1571 335.035 56.9104 335.035 57.8038C335.035 58.4438 334.908 59.0838 334.655 59.7238C334.402 60.3504 334.055 60.9638 333.615 61.5638C333.188 62.1638 332.708 62.7438 332.175 63.3038C331.642 63.8504 331.095 64.3704 330.535 64.8638C329.975 65.3571 329.442 65.8038 328.935 66.2038H335.455V67.8638H326.055ZM338.499 67.9638C338.113 67.9638 337.793 67.8438 337.539 67.6038C337.299 67.3504 337.179 67.0504 337.179 66.7038C337.179 66.3438 337.299 66.0438 337.539 65.8038C337.793 65.5504 338.113 65.4238 338.499 65.4238C338.886 65.4238 339.199 65.5504 339.439 65.8038C339.679 66.0438 339.799 66.3438 339.799 66.7038C339.799 67.0504 339.679 67.3504 339.439 67.6038C339.199 67.8438 338.886 67.9638 338.499 67.9638ZM346.497 68.1038C345.604 68.1038 344.784 67.9438 344.037 67.6238C343.304 67.2904 342.717 66.7971 342.277 66.1438C341.851 65.4771 341.624 64.6438 341.597 63.6438H343.597C343.611 64.1504 343.731 64.6104 343.957 65.0238C344.184 65.4371 344.511 65.7704 344.937 66.0238C345.377 66.2638 345.897 66.3838 346.497 66.3838C347.097 66.3838 347.597 66.2704 347.997 66.0438C348.411 65.8171 348.717 65.5104 348.917 65.1238C349.131 64.7371 349.237 64.3038 349.237 63.8238C349.237 63.2238 349.091 62.7371 348.797 62.3638C348.517 61.9771 348.131 61.6904 347.637 61.5038C347.157 61.3171 346.617 61.2238 346.017 61.2238H344.977V59.5438H346.017C346.857 59.5438 347.524 59.3571 348.017 58.9838C348.511 58.5971 348.757 58.0504 348.757 57.3438C348.757 56.7571 348.564 56.2771 348.177 55.9038C347.791 55.5304 347.231 55.3438 346.497 55.3438C345.764 55.3438 345.184 55.5571 344.757 55.9838C344.331 56.4104 344.084 56.9504 344.017 57.6038H342.037C342.077 56.8171 342.284 56.1238 342.657 55.5238C343.044 54.9104 343.564 54.4438 344.217 54.1238C344.871 53.7904 345.631 53.6238 346.497 53.6238C347.431 53.6238 348.211 53.7904 348.837 54.1238C349.464 54.4438 349.937 54.8771 350.257 55.4238C350.591 55.9704 350.757 56.5638 350.757 57.2038C350.757 57.6971 350.664 58.1571 350.477 58.5838C350.291 59.0104 350.024 59.3771 349.677 59.6838C349.344 59.9771 348.931 60.1904 348.437 60.3238C348.971 60.4304 349.451 60.6371 349.877 60.9438C350.304 61.2504 350.637 61.6504 350.877 62.1438C351.117 62.6371 351.237 63.2038 351.237 63.8438C351.237 64.6038 351.057 65.3104 350.697 65.9638C350.337 66.6038 349.804 67.1238 349.097 67.5238C348.404 67.9104 347.537 68.1038 346.497 68.1038ZM355.12 67.8638V56.1238L352.78 56.6838V55.2038L355.88 53.8638H357.18V67.8638H355.12ZM361.705 67.8638L369.745 53.8638H371.725L363.685 67.8638H361.705ZM370.825 68.1038C370.212 68.1038 369.658 67.9638 369.165 67.6838C368.672 67.4038 368.278 67.0104 367.985 66.5038C367.692 65.9838 367.545 65.3771 367.545 64.6838C367.545 63.9638 367.692 63.3504 367.985 62.8438C368.278 62.3371 368.672 61.9438 369.165 61.6638C369.658 61.3838 370.212 61.2438 370.825 61.2438C371.452 61.2438 372.005 61.3838 372.485 61.6638C372.978 61.9438 373.372 62.3371 373.665 62.8438C373.958 63.3504 374.105 63.9638 374.105 64.6838C374.105 65.3771 373.958 65.9838 373.665 66.5038C373.372 67.0104 372.978 67.4038 372.485 67.6838C371.992 67.9638 371.438 68.1038 370.825 68.1038ZM370.805 66.6238C371.112 66.6238 371.385 66.5504 371.625 66.4038C371.878 66.2571 372.078 66.0438 372.225 65.7638C372.385 65.4704 372.465 65.1038 372.465 64.6638C372.465 64.2238 372.392 63.8638 372.245 63.5838C372.098 63.2904 371.898 63.0704 371.645 62.9238C371.405 62.7771 371.132 62.7038 370.825 62.7038C370.532 62.7038 370.258 62.7771 370.005 62.9238C369.752 63.0704 369.552 63.2904 369.405 63.5838C369.258 63.8638 369.185 64.2238 369.185 64.6638C369.185 65.1038 369.258 65.4704 369.405 65.7638C369.552 66.0438 369.752 66.2571 370.005 66.4038C370.258 66.5504 370.525 66.6238 370.805 66.6238ZM362.725 60.5038C362.112 60.5038 361.558 60.3638 361.065 60.0838C360.572 59.8038 360.178 59.4104 359.885 58.9038C359.592 58.3838 359.445 57.7704 359.445 57.0638C359.445 56.3571 359.592 55.7504 359.885 55.2438C360.178 54.7371 360.572 54.3438 361.065 54.0638C361.572 53.7838 362.132 53.6438 362.745 53.6438C363.358 53.6438 363.912 53.7838 364.405 54.0638C364.898 54.3438 365.285 54.7371 365.565 55.2438C365.858 55.7504 366.005 56.3571 366.005 57.0638C366.005 57.7704 365.858 58.3838 365.565 58.9038C365.285 59.4104 364.892 59.8038 364.385 60.0838C363.892 60.3638 363.338 60.5038 362.725 60.5038ZM362.725 59.0238C363.032 59.0238 363.305 58.9504 363.545 58.8038C363.798 58.6571 363.998 58.4438 364.145 58.1638C364.292 57.8704 364.365 57.5038 364.365 57.0638C364.365 56.6238 364.292 56.2571 364.145 55.9638C363.998 55.6704 363.798 55.4504 363.545 55.3038C363.305 55.1571 363.038 55.0838 362.745 55.0838C362.452 55.0838 362.172 55.1571 361.905 55.3038C361.652 55.4504 361.445 55.6704 361.285 55.9638C361.138 56.2571 361.065 56.6238 361.065 57.0638C361.065 57.4904 361.138 57.8504 361.285 58.1438C361.445 58.4371 361.652 58.6571 361.905 58.8038C362.158 58.9504 362.432 59.0238 362.725 59.0238Z" fill="#99E39E"/>
<path d="M167 152.864C180.255 152.864 191 142.119 191 128.864C191 115.609 180.255 104.864 167 104.864C153.745 104.864 143 115.609 143 128.864C143 142.119 153.745 152.864 167 152.864Z" fill="#F49B33"/>
<path d="M175.841 123.962C175.606 120.953 173.024 119.899 169.757 119.554L169.83 115.384L167.295 115.343L167.221 119.402C166.554 119.388 165.873 119.392 165.191 119.392L165.265 115.306L162.729 115.26L162.656 119.429C162.108 119.429 161.565 119.434 161.04 119.42V119.406L157.538 119.346L157.492 122.057C157.492 122.057 159.37 122.052 159.338 122.089C160.364 122.108 160.691 122.711 160.778 123.226L160.695 127.975C160.764 127.975 160.856 127.98 160.962 127.998L160.695 127.994L160.58 134.648C160.53 134.971 160.332 135.481 159.609 135.472C159.641 135.5 157.764 135.44 157.764 135.44L157.207 138.459L160.511 138.519C161.123 138.533 161.731 138.551 162.324 138.565L162.251 142.78L164.786 142.822L164.86 138.652C165.555 138.675 166.232 138.694 166.89 138.708L166.816 142.859L169.352 142.9L169.425 138.694C173.696 138.523 176.701 137.502 177.143 133.498C177.497 130.276 176.006 128.808 173.595 128.187C175.077 127.469 176.02 126.167 175.841 123.962ZM172.131 132.918C172.081 136.071 166.687 135.615 164.966 135.587L165.067 130C166.788 130.028 172.191 129.628 172.131 132.918ZM171.091 125.012C171.041 127.879 166.544 127.465 165.113 127.442L165.201 122.375C166.632 122.398 171.142 122.02 171.091 125.012Z" fill="white"/>
<path d="M208.136 122.864V111.664H212.52C213.309 111.664 213.965 111.786 214.488 112.032C215.021 112.277 215.421 112.618 215.688 113.056C215.955 113.482 216.088 113.978 216.088 114.544C216.088 115.109 215.965 115.584 215.72 115.968C215.475 116.352 215.149 116.645 214.744 116.848C214.349 117.05 213.917 117.173 213.448 117.216L213.688 117.04C214.189 117.05 214.637 117.184 215.032 117.44C215.437 117.696 215.757 118.032 215.992 118.448C216.227 118.853 216.344 119.306 216.344 119.808C216.344 120.394 216.2 120.922 215.912 121.392C215.635 121.85 215.224 122.213 214.68 122.48C214.136 122.736 213.469 122.864 212.68 122.864H208.136ZM210.056 121.296H212.392C213.021 121.296 213.512 121.146 213.864 120.848C214.216 120.549 214.392 120.133 214.392 119.6C214.392 119.066 214.211 118.645 213.848 118.336C213.485 118.016 212.989 117.856 212.36 117.856H210.056V121.296ZM210.056 116.4H212.248C212.867 116.4 213.336 116.261 213.656 115.984C213.976 115.696 214.136 115.301 214.136 114.8C214.136 114.309 213.976 113.925 213.656 113.648C213.336 113.36 212.861 113.216 212.232 113.216H210.056V116.4ZM218.199 122.864V114.8H220.119V122.864H218.199ZM219.159 113.52C218.807 113.52 218.514 113.413 218.279 113.2C218.055 112.976 217.943 112.704 217.943 112.384C217.943 112.053 218.055 111.786 218.279 111.584C218.514 111.37 218.807 111.264 219.159 111.264C219.511 111.264 219.799 111.37 220.023 111.584C220.258 111.786 220.375 112.053 220.375 112.384C220.375 112.704 220.258 112.976 220.023 113.2C219.799 113.413 219.511 113.52 219.159 113.52ZM225.842 122.864C225.298 122.864 224.823 122.778 224.418 122.608C224.023 122.437 223.714 122.154 223.49 121.76C223.266 121.365 223.154 120.832 223.154 120.16V116.416H221.778V114.8H223.154L223.378 112.672H225.074V114.8H227.266V116.416H225.074V120.16C225.074 120.565 225.159 120.848 225.33 121.008C225.511 121.157 225.81 121.232 226.226 121.232H227.218V122.864H225.842ZM232.693 123.056C231.904 123.056 231.194 122.88 230.565 122.528C229.946 122.165 229.461 121.669 229.109 121.04C228.768 120.4 228.597 119.674 228.597 118.864C228.597 118.021 228.768 117.285 229.109 116.656C229.461 116.016 229.946 115.514 230.565 115.152C231.194 114.789 231.909 114.608 232.709 114.608C233.712 114.608 234.554 114.874 235.237 115.408C235.92 115.93 236.357 116.65 236.549 117.568H234.533C234.426 117.162 234.202 116.842 233.861 116.608C233.53 116.373 233.136 116.256 232.677 116.256C232.282 116.256 231.92 116.357 231.589 116.56C231.269 116.762 231.013 117.056 230.821 117.44C230.64 117.824 230.549 118.288 230.549 118.832C230.549 119.248 230.602 119.616 230.709 119.936C230.816 120.256 230.965 120.528 231.157 120.752C231.36 120.965 231.589 121.13 231.845 121.248C232.101 121.365 232.378 121.424 232.677 121.424C232.986 121.424 233.264 121.376 233.509 121.28C233.765 121.173 233.978 121.018 234.149 120.816C234.33 120.613 234.458 120.373 234.533 120.096H236.549C236.357 120.992 235.92 121.712 235.237 122.256C234.554 122.789 233.706 123.056 232.693 123.056ZM242.16 123.056C241.392 123.056 240.699 122.88 240.08 122.528C239.472 122.165 238.992 121.669 238.64 121.04C238.299 120.4 238.128 119.669 238.128 118.848C238.128 118.005 238.304 117.269 238.656 116.64C239.008 116 239.488 115.504 240.096 115.152C240.715 114.789 241.408 114.608 242.176 114.608C242.944 114.608 243.632 114.789 244.24 115.152C244.859 115.504 245.339 115.994 245.68 116.624C246.032 117.253 246.208 117.989 246.208 118.832C246.208 119.674 246.032 120.41 245.68 121.04C245.328 121.669 244.843 122.165 244.224 122.528C243.616 122.88 242.928 123.056 242.16 123.056ZM242.16 121.408C242.544 121.408 242.891 121.312 243.2 121.12C243.52 120.928 243.776 120.64 243.968 120.256C244.16 119.872 244.256 119.397 244.256 118.832C244.256 118.266 244.16 117.797 243.968 117.424C243.787 117.04 243.536 116.752 243.216 116.56C242.907 116.368 242.56 116.272 242.176 116.272C241.803 116.272 241.456 116.368 241.136 116.56C240.816 116.752 240.56 117.04 240.368 117.424C240.176 117.797 240.08 118.266 240.08 118.832C240.08 119.397 240.176 119.872 240.368 120.256C240.56 120.64 240.811 120.928 241.12 121.12C241.44 121.312 241.787 121.408 242.16 121.408ZM248.168 122.864V114.8H250.088V122.864H248.168ZM249.128 113.52C248.776 113.52 248.482 113.413 248.248 113.2C248.024 112.976 247.912 112.704 247.912 112.384C247.912 112.053 248.024 111.786 248.248 111.584C248.482 111.37 248.776 111.264 249.128 111.264C249.48 111.264 249.768 111.37 249.992 111.584C250.226 111.786 250.344 112.053 250.344 112.384C250.344 112.704 250.226 112.976 249.992 113.2C249.768 113.413 249.48 113.52 249.128 113.52ZM252.306 122.864V114.8H254.002L254.146 116.144C254.392 115.674 254.744 115.301 255.202 115.024C255.661 114.746 256.205 114.608 256.834 114.608C257.485 114.608 258.04 114.746 258.498 115.024C258.957 115.29 259.309 115.685 259.554 116.208C259.81 116.73 259.938 117.381 259.938 118.16V122.864H258.018V118.336C258.018 117.664 257.869 117.146 257.57 116.784C257.272 116.421 256.829 116.24 256.242 116.24C255.858 116.24 255.512 116.33 255.202 116.512C254.904 116.693 254.664 116.96 254.482 117.312C254.312 117.653 254.226 118.069 254.226 118.56V122.864H252.306Z" fill="white"/>
<path d="M208.05 145.864V136.064H211.494C212.185 136.064 212.754 136.176 213.202 136.4C213.659 136.614 214 136.913 214.224 137.296C214.448 137.669 214.56 138.089 214.56 138.556C214.56 139.06 214.448 139.48 214.224 139.816C214.009 140.152 213.725 140.408 213.37 140.586C213.025 140.763 212.656 140.87 212.264 140.908L212.46 140.768C212.88 140.777 213.267 140.889 213.622 141.104C213.977 141.318 214.257 141.608 214.462 141.972C214.677 142.336 214.784 142.742 214.784 143.19C214.784 143.684 214.663 144.137 214.42 144.548C214.177 144.949 213.818 145.271 213.342 145.514C212.875 145.747 212.297 145.864 211.606 145.864H208.05ZM209.226 144.884H211.48C212.143 144.884 212.656 144.73 213.02 144.422C213.393 144.104 213.58 143.666 213.58 143.106C213.58 142.555 213.389 142.116 213.006 141.79C212.633 141.454 212.115 141.286 211.452 141.286H209.226V144.884ZM209.226 140.348H211.41C212.045 140.348 212.525 140.198 212.852 139.9C213.188 139.601 213.356 139.195 213.356 138.682C213.356 138.187 213.188 137.79 212.852 137.492C212.525 137.193 212.031 137.044 211.368 137.044H209.226V140.348ZM218.549 145.864V137.03H215.623V136.064H222.651V137.03H219.725V145.864H218.549ZM227.851 146.032C226.899 146.032 226.073 145.822 225.373 145.402C224.682 144.972 224.15 144.38 223.777 143.624C223.404 142.858 223.217 141.972 223.217 140.964C223.217 139.956 223.404 139.074 223.777 138.318C224.15 137.552 224.682 136.96 225.373 136.54C226.073 136.11 226.899 135.896 227.851 135.896C228.971 135.896 229.881 136.162 230.581 136.694C231.281 137.226 231.729 137.977 231.925 138.948H230.623C230.474 138.341 230.17 137.856 229.713 137.492C229.256 137.118 228.635 136.932 227.851 136.932C227.151 136.932 226.544 137.095 226.031 137.422C225.518 137.739 225.121 138.201 224.841 138.808C224.561 139.405 224.421 140.124 224.421 140.964C224.421 141.804 224.561 142.527 224.841 143.134C225.121 143.731 225.518 144.193 226.031 144.52C226.544 144.837 227.151 144.996 227.851 144.996C228.635 144.996 229.256 144.818 229.713 144.464C230.17 144.1 230.474 143.619 230.623 143.022H231.925C231.729 143.964 231.281 144.702 230.581 145.234C229.881 145.766 228.971 146.032 227.851 146.032ZM232.972 147.194L236.486 135.168H237.648L234.134 147.194H232.972ZM242.641 146.032C241.969 146.032 241.357 145.896 240.807 145.626C240.265 145.355 239.831 144.944 239.505 144.394C239.178 143.834 239.015 143.12 239.015 142.252V136.064H240.191V142.266C240.191 142.9 240.293 143.418 240.499 143.82C240.713 144.221 241.007 144.515 241.381 144.702C241.754 144.888 242.183 144.982 242.669 144.982C243.163 144.982 243.593 144.888 243.957 144.702C244.321 144.515 244.605 144.221 244.811 143.82C245.016 143.418 245.119 142.9 245.119 142.266V136.064H246.294V142.252C246.294 143.12 246.131 143.834 245.805 144.394C245.478 144.944 245.039 145.355 244.489 145.626C243.938 145.896 243.322 146.032 242.641 146.032ZM251.408 146.032C250.69 146.032 250.064 145.901 249.532 145.64C249 145.378 248.59 145.014 248.3 144.548C248.011 144.081 247.866 143.54 247.866 142.924H249.098C249.098 143.306 249.187 143.661 249.364 143.988C249.542 144.305 249.798 144.562 250.134 144.758C250.48 144.944 250.904 145.038 251.408 145.038C251.847 145.038 252.22 144.968 252.528 144.828C252.846 144.678 253.084 144.478 253.242 144.226C253.41 143.974 253.494 143.689 253.494 143.372C253.494 142.989 253.41 142.681 253.242 142.448C253.084 142.205 252.864 142.009 252.584 141.86C252.304 141.71 251.978 141.58 251.604 141.468C251.24 141.346 250.858 141.22 250.456 141.09C249.682 140.828 249.112 140.502 248.748 140.11C248.384 139.718 248.202 139.209 248.202 138.584C248.202 138.052 248.324 137.585 248.566 137.184C248.818 136.782 249.173 136.47 249.63 136.246C250.097 136.012 250.648 135.896 251.282 135.896C251.908 135.896 252.449 136.012 252.906 136.246C253.373 136.479 253.737 136.801 253.998 137.212C254.26 137.613 254.39 138.08 254.39 138.612H253.158C253.158 138.341 253.088 138.075 252.948 137.814C252.808 137.552 252.594 137.338 252.304 137.17C252.024 136.992 251.67 136.904 251.24 136.904C250.886 136.894 250.568 136.955 250.288 137.086C250.018 137.207 249.803 137.384 249.644 137.618C249.495 137.851 249.42 138.136 249.42 138.472C249.42 138.789 249.486 139.046 249.616 139.242C249.756 139.438 249.952 139.606 250.204 139.746C250.466 139.876 250.769 139.998 251.114 140.11C251.46 140.222 251.842 140.348 252.262 140.488C252.738 140.646 253.158 140.842 253.522 141.076C253.896 141.3 254.185 141.589 254.39 141.944C254.605 142.298 254.712 142.751 254.712 143.302C254.712 143.768 254.586 144.212 254.334 144.632C254.092 145.042 253.728 145.378 253.242 145.64C252.757 145.901 252.146 146.032 251.408 146.032ZM256.407 145.864V136.064H259.291C260.439 136.064 261.382 136.264 262.119 136.666C262.866 137.058 263.417 137.622 263.771 138.36C264.135 139.088 264.317 139.965 264.317 140.992C264.317 142 264.135 142.868 263.771 143.596C263.417 144.324 262.866 144.884 262.119 145.276C261.382 145.668 260.439 145.864 259.291 145.864H256.407ZM257.583 144.884H259.263C260.215 144.884 260.971 144.73 261.531 144.422C262.091 144.104 262.493 143.656 262.735 143.078C262.978 142.49 263.099 141.794 263.099 140.992C263.099 140.17 262.978 139.466 262.735 138.878C262.493 138.29 262.091 137.837 261.531 137.52C260.971 137.202 260.215 137.044 259.263 137.044H257.583V144.884Z" fill="white" fill-opacity="0.8"/>
<path d="M385.416 133.864V124.472L383.496 124.952V123.768L386.008 122.664H387.048V133.864H385.416ZM389.947 133.944C389.637 133.944 389.381 133.848 389.179 133.656C388.987 133.453 388.891 133.213 388.891 132.936C388.891 132.648 388.987 132.408 389.179 132.216C389.381 132.013 389.637 131.912 389.947 131.912C390.245 131.912 390.491 132.013 390.683 132.216C390.885 132.408 390.987 132.648 390.987 132.936C390.987 133.213 390.885 133.453 390.683 133.656C390.491 133.848 390.245 133.944 389.947 133.944ZM396.552 134.056C395.549 134.056 394.691 133.816 393.976 133.336C393.261 132.845 392.712 132.168 392.328 131.304C391.944 130.429 391.752 129.416 391.752 128.264C391.752 127.112 391.944 126.104 392.328 125.24C392.712 124.365 393.261 123.688 393.976 123.208C394.691 122.717 395.549 122.472 396.552 122.472C397.544 122.472 398.392 122.717 399.096 123.208C399.811 123.688 400.36 124.365 400.744 125.24C401.128 126.104 401.32 127.112 401.32 128.264C401.32 129.416 401.128 130.429 400.744 131.304C400.36 132.168 399.811 132.845 399.096 133.336C398.392 133.816 397.544 134.056 396.552 134.056ZM396.536 132.632C397.155 132.632 397.699 132.456 398.168 132.104C398.637 131.752 399.005 131.25 399.272 130.6C399.549 129.949 399.688 129.17 399.688 128.264C399.688 127.357 399.549 126.578 399.272 125.928C399.005 125.277 398.637 124.781 398.168 124.44C397.699 124.088 397.155 123.912 396.536 123.912C395.928 123.912 395.384 124.088 394.904 124.44C394.435 124.781 394.061 125.277 393.784 125.928C393.517 126.578 393.384 127.357 393.384 128.264C393.384 129.17 393.517 129.949 393.784 130.6C394.061 131.25 394.435 131.752 394.904 132.104C395.384 132.456 395.928 132.632 396.536 132.632ZM407.102 134.056C406.323 134.056 405.646 133.917 405.07 133.64C404.494 133.352 404.041 132.968 403.71 132.488C403.39 131.997 403.193 131.442 403.118 130.824H404.67C404.787 131.378 405.059 131.832 405.486 132.184C405.913 132.525 406.457 132.696 407.118 132.696C407.598 132.696 408.014 132.578 408.366 132.344C408.718 132.109 408.99 131.794 409.182 131.4C409.374 131.005 409.47 130.562 409.47 130.072C409.47 129.56 409.369 129.117 409.166 128.744C408.974 128.36 408.702 128.061 408.35 127.848C408.009 127.634 407.609 127.528 407.15 127.528C406.595 127.528 406.115 127.656 405.71 127.912C405.315 128.168 405.022 128.488 404.83 128.872H403.294L404.238 122.664H410.254V124.056H405.454L404.862 127.192C405.118 126.904 405.459 126.669 405.886 126.488C406.323 126.296 406.819 126.2 407.374 126.2C407.939 126.2 408.446 126.301 408.894 126.504C409.342 126.706 409.721 126.984 410.03 127.336C410.35 127.688 410.595 128.098 410.766 128.568C410.937 129.026 411.022 129.522 411.022 130.056C411.022 130.621 410.931 131.144 410.75 131.624C410.569 132.104 410.307 132.53 409.966 132.904C409.625 133.266 409.214 133.549 408.734 133.752C408.254 133.954 407.71 134.056 407.102 134.056ZM414.402 133.864L420.85 122.664H422.434L415.986 133.864H414.402ZM421.746 134.056C421.256 134.056 420.813 133.944 420.418 133.72C420.024 133.496 419.709 133.181 419.474 132.776C419.24 132.36 419.122 131.874 419.122 131.32C419.122 130.744 419.24 130.253 419.474 129.848C419.709 129.442 420.024 129.128 420.418 128.904C420.813 128.68 421.256 128.568 421.746 128.568C422.248 128.568 422.69 128.68 423.074 128.904C423.469 129.128 423.778 129.442 424.002 129.848C424.237 130.253 424.354 130.744 424.354 131.32C424.354 131.874 424.237 132.36 424.002 132.776C423.778 133.181 423.469 133.496 423.074 133.72C422.68 133.944 422.237 134.056 421.746 134.056ZM421.73 132.872C421.976 132.872 422.194 132.813 422.386 132.696C422.589 132.578 422.749 132.408 422.866 132.184C422.994 131.949 423.058 131.656 423.058 131.304C423.058 130.952 423 130.664 422.882 130.44C422.765 130.205 422.605 130.029 422.402 129.912C422.21 129.794 421.992 129.736 421.746 129.736C421.512 129.736 421.293 129.794 421.09 129.912C420.888 130.029 420.722 130.205 420.594 130.44C420.477 130.664 420.418 130.952 420.418 131.304C420.418 131.656 420.477 131.949 420.594 132.184C420.722 132.408 420.882 132.578 421.074 132.696C421.277 132.813 421.496 132.872 421.73 132.872ZM415.202 127.976C414.701 127.976 414.253 127.864 413.858 127.64C413.464 127.416 413.149 127.101 412.914 126.696C412.68 126.28 412.562 125.789 412.562 125.224C412.562 124.658 412.68 124.173 412.914 123.768C413.149 123.362 413.464 123.048 413.858 122.824C414.264 122.6 414.712 122.488 415.202 122.488C415.704 122.488 416.152 122.6 416.546 122.824C416.941 123.048 417.25 123.362 417.474 123.768C417.709 124.173 417.826 124.658 417.826 125.224C417.826 125.789 417.709 126.28 417.474 126.696C417.25 127.101 416.936 127.416 416.53 127.64C416.136 127.864 415.693 127.976 415.202 127.976ZM415.186 126.792C415.432 126.792 415.65 126.733 415.842 126.616C416.045 126.498 416.205 126.328 416.322 126.104C416.44 125.869 416.498 125.576 416.498 125.224C416.498 124.872 416.44 124.578 416.322 124.344C416.205 124.109 416.045 123.933 415.842 123.816C415.65 123.698 415.437 123.64 415.202 123.64C414.978 123.64 414.76 123.698 414.546 123.816C414.344 123.933 414.178 124.109 414.05 124.344C413.933 124.578 413.874 124.872 413.874 125.224C413.874 125.565 413.933 125.853 414.05 126.088C414.178 126.322 414.344 126.498 414.546 126.616C414.749 126.733 414.962 126.792 415.186 126.792Z" fill="#99E39E"/>
<path d="M440 122.197V135.53" stroke="#99E39E" stroke-width="1.25" stroke-linecap="round" stroke-linejoin="round"/>
<path d="M444.166 126.364C444.166 126.364 441.098 122.197 440 122.197C438.902 122.197 435.833 126.364 435.833 126.364" stroke="#99E39E" stroke-width="1.25" stroke-linecap="round" stroke-linejoin="round"/>
<path d="M167 232.864C180.255 232.864 191 222.119 191 208.864C191 195.609 180.255 184.864 167 184.864C153.745 184.864 143 195.609 143 208.864C143 222.119 153.745 232.864 167 232.864Z" fill="#627EEA"/>
<path d="M167.748 190.86V204.166L178.994 209.191L167.748 190.86Z" fill="white" fill-opacity="0.602"/>
<path d="M167.748 190.86L156.503 209.191L167.748 204.166V190.86Z" fill="white"/>
<path d="M167.748 217.813V226.854L179 211.285L167.748 217.813Z" fill="white" fill-opacity="0.602"/>
<path d="M167.748 226.854V217.813L156.503 211.285L167.748 226.854Z" fill="white"/>
<path d="M167.748 215.72L178.994 209.192L167.748 204.166V215.72Z" fill="white" fill-opacity="0.2"/>
<path d="M156.503 209.192L167.748 215.72V204.166L156.503 209.192Z" fill="white" fill-opacity="0.602"/>
<path d="M208.136 202.864V191.664H215.368V193.216H210.056V196.432H214.888V197.952H210.056V201.312H215.368V202.864H208.136ZM220.826 202.864C220.282 202.864 219.807 202.778 219.402 202.608C219.007 202.437 218.698 202.154 218.474 201.76C218.25 201.365 218.138 200.832 218.138 200.16V196.416H216.762V194.8H218.138L218.362 192.672H220.058V194.8H222.25V196.416H220.058V200.16C220.058 200.565 220.143 200.848 220.314 201.008C220.495 201.157 220.794 201.232 221.21 201.232H222.202V202.864H220.826ZM224.056 202.864V191.344H225.976V196.048C226.243 195.61 226.606 195.264 227.064 195.008C227.523 194.741 228.04 194.608 228.616 194.608C229.278 194.608 229.838 194.746 230.296 195.024C230.755 195.29 231.102 195.69 231.336 196.224C231.582 196.746 231.704 197.402 231.704 198.192V202.864H229.8V198.368C229.8 197.674 229.651 197.146 229.352 196.784C229.064 196.421 228.622 196.24 228.024 196.24C227.64 196.24 227.294 196.336 226.984 196.528C226.675 196.709 226.43 196.976 226.248 197.328C226.067 197.669 225.976 198.09 225.976 198.592V202.864H224.056ZM237.52 203.056C236.72 203.056 236.016 202.885 235.408 202.544C234.8 202.192 234.325 201.701 233.984 201.072C233.643 200.442 233.472 199.717 233.472 198.896C233.472 198.042 233.637 197.296 233.968 196.656C234.309 196.016 234.784 195.514 235.392 195.152C236.011 194.789 236.725 194.608 237.536 194.608C238.325 194.608 239.013 194.784 239.6 195.136C240.187 195.488 240.64 195.962 240.96 196.56C241.28 197.146 241.44 197.808 241.44 198.544C241.44 198.65 241.44 198.768 241.44 198.896C241.44 199.024 241.429 199.157 241.408 199.296H234.848V198.064H239.504C239.483 197.477 239.285 197.018 238.912 196.688C238.539 196.346 238.075 196.176 237.52 196.176C237.125 196.176 236.763 196.266 236.432 196.448C236.101 196.629 235.84 196.901 235.648 197.264C235.456 197.616 235.36 198.064 235.36 198.608V199.072C235.36 199.573 235.451 200.005 235.632 200.368C235.824 200.73 236.08 201.008 236.4 201.2C236.731 201.381 237.099 201.472 237.504 201.472C237.952 201.472 238.32 201.376 238.608 201.184C238.907 200.992 239.125 200.736 239.264 200.416H241.216C241.067 200.917 240.821 201.37 240.48 201.776C240.139 202.17 239.717 202.485 239.216 202.72C238.715 202.944 238.149 203.056 237.52 203.056ZM243.213 202.864V194.8H244.925L245.101 196.304C245.293 195.952 245.533 195.653 245.821 195.408C246.109 195.152 246.445 194.954 246.829 194.816C247.223 194.677 247.655 194.608 248.125 194.608V196.64H247.453C247.133 196.64 246.829 196.682 246.541 196.768C246.253 196.842 246.002 196.97 245.789 197.152C245.586 197.322 245.426 197.562 245.309 197.872C245.191 198.17 245.133 198.549 245.133 199.008V202.864H243.213ZM253.176 203.056C252.376 203.056 251.672 202.885 251.064 202.544C250.456 202.192 249.981 201.701 249.64 201.072C249.299 200.442 249.128 199.717 249.128 198.896C249.128 198.042 249.293 197.296 249.624 196.656C249.965 196.016 250.44 195.514 251.048 195.152C251.667 194.789 252.381 194.608 253.192 194.608C253.981 194.608 254.669 194.784 255.256 195.136C255.843 195.488 256.296 195.962 256.616 196.56C256.936 197.146 257.096 197.808 257.096 198.544C257.096 198.65 257.096 198.768 257.096 198.896C257.096 199.024 257.085 199.157 257.064 199.296H250.504V198.064H255.16C255.139 197.477 254.941 197.018 254.568 196.688C254.195 196.346 253.731 196.176 253.176 196.176C252.781 196.176 252.419 196.266 252.088 196.448C251.757 196.629 251.496 196.901 251.304 197.264C251.112 197.616 251.016 198.064 251.016 198.608V199.072C251.016 199.573 251.107 200.005 251.288 200.368C251.48 200.73 251.736 201.008 252.056 201.2C252.387 201.381 252.755 201.472 253.16 201.472C253.608 201.472 253.976 201.376 254.264 201.184C254.563 200.992 254.781 200.736 254.92 200.416H256.872C256.723 200.917 256.477 201.37 256.136 201.776C255.795 202.17 255.373 202.485 254.872 202.72C254.371 202.944 253.805 203.056 253.176 203.056ZM261.861 203.056C261.21 203.056 260.65 202.928 260.181 202.672C259.722 202.405 259.37 202.01 259.125 201.488C258.88 200.954 258.757 200.298 258.757 199.52V194.8H260.677V199.328C260.677 200.021 260.821 200.549 261.109 200.912C261.408 201.264 261.856 201.44 262.453 201.44C262.837 201.44 263.178 201.349 263.477 201.168C263.786 200.986 264.026 200.725 264.197 200.384C264.378 200.032 264.469 199.605 264.469 199.104V194.8H266.389V202.864H264.693L264.549 201.52C264.304 201.989 263.946 202.362 263.477 202.64C263.018 202.917 262.48 203.056 261.861 203.056ZM268.525 202.864V194.8H270.221L270.381 195.904C270.637 195.498 270.973 195.184 271.389 194.96C271.816 194.725 272.301 194.608 272.845 194.608C273.25 194.608 273.613 194.661 273.933 194.768C274.264 194.874 274.552 195.034 274.797 195.248C275.053 195.461 275.261 195.728 275.421 196.048C275.72 195.6 276.109 195.248 276.589 194.992C277.069 194.736 277.592 194.608 278.157 194.608C278.829 194.608 279.4 194.746 279.869 195.024C280.338 195.29 280.696 195.69 280.941 196.224C281.186 196.746 281.309 197.392 281.309 198.16V202.864H279.405V198.352C279.405 197.669 279.266 197.146 278.989 196.784C278.712 196.421 278.301 196.24 277.757 196.24C277.384 196.24 277.053 196.33 276.765 196.512C276.488 196.693 276.269 196.96 276.109 197.312C275.949 197.653 275.869 198.074 275.869 198.576V202.864H273.965V198.352C273.965 197.669 273.826 197.146 273.549 196.784C273.272 196.421 272.856 196.24 272.301 196.24C271.949 196.24 271.629 196.33 271.341 196.512C271.064 196.693 270.845 196.96 270.685 197.312C270.525 197.653 270.445 198.074 270.445 198.576V202.864H268.525Z" fill="white"/>
<path d="M208.05 225.864V216.064H211.494C212.185 216.064 212.754 216.176 213.202 216.4C213.659 216.614 214 216.913 214.224 217.296C214.448 217.669 214.56 218.089 214.56 218.556C214.56 219.06 214.448 219.48 214.224 219.816C214.009 220.152 213.725 220.408 213.37 220.586C213.025 220.763 212.656 220.87 212.264 220.908L212.46 220.768C212.88 220.777 213.267 220.889 213.622 221.104C213.977 221.318 214.257 221.608 214.462 221.972C214.677 222.336 214.784 222.742 214.784 223.19C214.784 223.684 214.663 224.137 214.42 224.548C214.177 224.949 213.818 225.271 213.342 225.514C212.875 225.747 212.297 225.864 211.606 225.864H208.05ZM209.226 224.884H211.48C212.143 224.884 212.656 224.73 213.02 224.422C213.393 224.104 213.58 223.666 213.58 223.106C213.58 222.555 213.389 222.116 213.006 221.79C212.633 221.454 212.115 221.286 211.452 221.286H209.226V224.884ZM209.226 220.348H211.41C212.045 220.348 212.525 220.198 212.852 219.9C213.188 219.601 213.356 219.195 213.356 218.682C213.356 218.187 213.188 217.79 212.852 217.492C212.525 217.193 212.031 217.044 211.368 217.044H209.226V220.348ZM218.549 225.864V217.03H215.623V216.064H222.651V217.03H219.725V225.864H218.549ZM227.851 226.032C226.899 226.032 226.073 225.822 225.373 225.402C224.682 224.972 224.15 224.38 223.777 223.624C223.404 222.858 223.217 221.972 223.217 220.964C223.217 219.956 223.404 219.074 223.777 218.318C224.15 217.552 224.682 216.96 225.373 216.54C226.073 216.11 226.899 215.896 227.851 215.896C228.971 215.896 229.881 216.162 230.581 216.694C231.281 217.226 231.729 217.977 231.925 218.948H230.623C230.474 218.341 230.17 217.856 229.713 217.492C229.256 217.118 228.635 216.932 227.851 216.932C227.151 216.932 226.544 217.095 226.031 217.422C225.518 217.739 225.121 218.201 224.841 218.808C224.561 219.405 224.421 220.124 224.421 220.964C224.421 221.804 224.561 222.527 224.841 223.134C225.121 223.731 225.518 224.193 226.031 224.52C226.544 224.837 227.151 224.996 227.851 224.996C228.635 224.996 229.256 224.818 229.713 224.464C230.17 224.1 230.474 223.619 230.623 223.022H231.925C231.729 223.964 231.281 224.702 230.581 225.234C229.881 225.766 228.971 226.032 227.851 226.032ZM232.972 227.194L236.486 215.168H237.648L234.134 227.194H232.972ZM242.641 226.032C241.969 226.032 241.357 225.896 240.807 225.626C240.265 225.355 239.831 224.944 239.505 224.394C239.178 223.834 239.015 223.12 239.015 222.252V216.064H240.191V222.266C240.191 222.9 240.293 223.418 240.499 223.82C240.713 224.221 241.007 224.515 241.381 224.702C241.754 224.888 242.183 224.982 242.669 224.982C243.163 224.982 243.593 224.888 243.957 224.702C244.321 224.515 244.605 224.221 244.811 223.82C245.016 223.418 245.119 222.9 245.119 222.266V216.064H246.294V222.252C246.294 223.12 246.131 223.834 245.805 224.394C245.478 224.944 245.039 225.355 244.489 225.626C243.938 225.896 243.322 226.032 242.641 226.032ZM251.408 226.032C250.69 226.032 250.064 225.901 249.532 225.64C249 225.378 248.59 225.014 248.3 224.548C248.011 224.081 247.866 223.54 247.866 222.924H249.098C249.098 223.306 249.187 223.661 249.364 223.988C249.542 224.305 249.798 224.562 250.134 224.758C250.48 224.944 250.904 225.038 251.408 225.038C251.847 225.038 252.22 224.968 252.528 224.828C252.846 224.678 253.084 224.478 253.242 224.226C253.41 223.974 253.494 223.689 253.494 223.372C253.494 222.989 253.41 222.681 253.242 222.448C253.084 222.205 252.864 222.009 252.584 221.86C252.304 221.71 251.978 221.58 251.604 221.468C251.24 221.346 250.858 221.22 250.456 221.09C249.682 220.828 249.112 220.502 248.748 220.11C248.384 219.718 248.202 219.209 248.202 218.584C248.202 218.052 248.324 217.585 248.566 217.184C248.818 216.782 249.173 216.47 249.63 216.246C250.097 216.012 250.648 215.896 251.282 215.896C251.908 215.896 252.449 216.012 252.906 216.246C253.373 216.479 253.737 216.801 253.998 217.212C254.26 217.613 254.39 218.08 254.39 218.612H253.158C253.158 218.341 253.088 218.075 252.948 217.814C252.808 217.552 252.594 217.338 252.304 217.17C252.024 216.992 251.67 216.904 251.24 216.904C250.886 216.894 250.568 216.955 250.288 217.086C250.018 217.207 249.803 217.384 249.644 217.618C249.495 217.851 249.42 218.136 249.42 218.472C249.42 218.789 249.486 219.046 249.616 219.242C249.756 219.438 249.952 219.606 250.204 219.746C250.466 219.876 250.769 219.998 251.114 220.11C251.46 220.222 251.842 220.348 252.262 220.488C252.738 220.646 253.158 220.842 253.522 221.076C253.896 221.3 254.185 221.589 254.39 221.944C254.605 222.298 254.712 222.751 254.712 223.302C254.712 223.768 254.586 224.212 254.334 224.632C254.092 225.042 253.728 225.378 253.242 225.64C252.757 225.901 252.146 226.032 251.408 226.032ZM256.407 225.864V216.064H259.291C260.439 216.064 261.382 216.264 262.119 216.666C262.866 217.058 263.417 217.622 263.771 218.36C264.135 219.088 264.317 219.965 264.317 220.992C264.317 222 264.135 222.868 263.771 223.596C263.417 224.324 262.866 224.884 262.119 225.276C261.382 225.668 260.439 225.864 259.291 225.864H256.407ZM257.583 224.884H259.263C260.215 224.884 260.971 224.73 261.531 224.422C262.091 224.104 262.493 223.656 262.735 223.078C262.978 222.49 263.099 221.794 263.099 220.992C263.099 220.17 262.978 219.466 262.735 218.878C262.493 218.29 262.091 217.837 261.531 217.52C260.971 217.202 260.215 217.044 259.263 217.044H257.583V224.884Z" fill="white" fill-opacity="0.8"/>
<path d="M385.416 213.864V204.472L383.496 204.952V203.768L386.008 202.664H387.048V213.864H385.416ZM389.947 213.944C389.637 213.944 389.381 213.848 389.179 213.656C388.987 213.453 388.891 213.213 388.891 212.936C388.891 212.648 388.987 212.408 389.179 212.216C389.381 212.013 389.637 211.912 389.947 211.912C390.245 211.912 390.491 212.013 390.683 212.216C390.885 212.408 390.987 212.648 390.987 212.936C390.987 213.213 390.885 213.453 390.683 213.656C390.491 213.848 390.245 213.944 389.947 213.944ZM396.552 214.056C395.549 214.056 394.691 213.816 393.976 213.336C393.261 212.845 392.712 212.168 392.328 211.304C391.944 210.429 391.752 209.416 391.752 208.264C391.752 207.112 391.944 206.104 392.328 205.24C392.712 204.365 393.261 203.688 393.976 203.208C394.691 202.717 395.549 202.472 396.552 202.472C397.544 202.472 398.392 202.717 399.096 203.208C399.811 203.688 400.36 204.365 400.744 205.24C401.128 206.104 401.32 207.112 401.32 208.264C401.32 209.416 401.128 210.429 400.744 211.304C400.36 212.168 399.811 212.845 399.096 213.336C398.392 213.816 397.544 214.056 396.552 214.056ZM396.536 212.632C397.155 212.632 397.699 212.456 398.168 212.104C398.637 211.752 399.005 211.25 399.272 210.6C399.549 209.949 399.688 209.17 399.688 208.264C399.688 207.357 399.549 206.578 399.272 205.928C399.005 205.277 398.637 204.781 398.168 204.44C397.699 204.088 397.155 203.912 396.536 203.912C395.928 203.912 395.384 204.088 394.904 204.44C394.435 204.781 394.061 205.277 393.784 205.928C393.517 206.578 393.384 207.357 393.384 208.264C393.384 209.17 393.517 209.949 393.784 210.6C394.061 211.25 394.435 211.752 394.904 212.104C395.384 212.456 395.928 212.632 396.536 212.632ZM407.102 214.056C406.323 214.056 405.646 213.917 405.07 213.64C404.494 213.352 404.041 212.968 403.71 212.488C403.39 211.997 403.193 211.442 403.118 210.824H404.67C404.787 211.378 405.059 211.832 405.486 212.184C405.913 212.525 406.457 212.696 407.118 212.696C407.598 212.696 408.014 212.578 408.366 212.344C408.718 212.109 408.99 211.794 409.182 211.4C409.374 211.005 409.47 210.562 409.47 210.072C409.47 209.56 409.369 209.117 409.166 208.744C408.974 208.36 408.702 208.061 408.35 207.848C408.009 207.634 407.609 207.528 407.15 207.528C406.595 207.528 406.115 207.656 405.71 207.912C405.315 208.168 405.022 208.488 404.83 208.872H403.294L404.238 202.664H410.254V204.056H405.454L404.862 207.192C405.118 206.904 405.459 206.669 405.886 206.488C406.323 206.296 406.819 206.2 407.374 206.2C407.939 206.2 408.446 206.301 408.894 206.504C409.342 206.706 409.721 206.984 410.03 207.336C410.35 207.688 410.595 208.098 410.766 208.568C410.937 209.026 411.022 209.522 411.022 210.056C411.022 210.621 410.931 211.144 410.75 211.624C410.569 212.104 410.307 212.53 409.966 212.904C409.625 213.266 409.214 213.549 408.734 213.752C408.254 213.954 407.71 214.056 407.102 214.056ZM414.402 213.864L420.85 202.664H422.434L415.986 213.864H414.402ZM421.746 214.056C421.256 214.056 420.813 213.944 420.418 213.72C420.024 213.496 419.709 213.181 419.474 212.776C419.24 212.36 419.122 211.874 419.122 211.32C419.122 210.744 419.24 210.253 419.474 209.848C419.709 209.442 420.024 209.128 420.418 208.904C420.813 208.68 421.256 208.568 421.746 208.568C422.248 208.568 422.69 208.68 423.074 208.904C423.469 209.128 423.778 209.442 424.002 209.848C424.237 210.253 424.354 210.744 424.354 211.32C424.354 211.874 424.237 212.36 424.002 212.776C423.778 213.181 423.469 213.496 423.074 213.72C422.68 213.944 422.237 214.056 421.746 214.056ZM421.73 212.872C421.976 212.872 422.194 212.813 422.386 212.696C422.589 212.578 422.749 212.408 422.866 212.184C422.994 211.949 423.058 211.656 423.058 211.304C423.058 210.952 423 210.664 422.882 210.44C422.765 210.205 422.605 210.029 422.402 209.912C422.21 209.794 421.992 209.736 421.746 209.736C421.512 209.736 421.293 209.794 421.09 209.912C420.888 210.029 420.722 210.205 420.594 210.44C420.477 210.664 420.418 210.952 420.418 211.304C420.418 211.656 420.477 211.949 420.594 212.184C420.722 212.408 420.882 212.578 421.074 212.696C421.277 212.813 421.496 212.872 421.73 212.872ZM415.202 207.976C414.701 207.976 414.253 207.864 413.858 207.64C413.464 207.416 413.149 207.101 412.914 206.696C412.68 206.28 412.562 205.789 412.562 205.224C412.562 204.658 412.68 204.173 412.914 203.768C413.149 203.362 413.464 203.048 413.858 202.824C414.264 202.6 414.712 202.488 415.202 202.488C415.704 202.488 416.152 202.6 416.546 202.824C416.941 203.048 417.25 203.362 417.474 203.768C417.709 204.173 417.826 204.658 417.826 205.224C417.826 205.789 417.709 206.28 417.474 206.696C417.25 207.101 416.936 207.416 416.53 207.64C416.136 207.864 415.693 207.976 415.202 207.976ZM415.186 206.792C415.432 206.792 415.65 206.733 415.842 206.616C416.045 206.498 416.205 206.328 416.322 206.104C416.44 205.869 416.498 205.576 416.498 205.224C416.498 204.872 416.44 204.578 416.322 204.344C416.205 204.109 416.045 203.933 415.842 203.816C415.65 203.698 415.437 203.64 415.202 203.64C414.978 203.64 414.76 203.698 414.546 203.816C414.344 203.933 414.178 204.109 414.05 204.344C413.933 204.578 413.874 204.872 413.874 205.224C413.874 205.565 413.933 205.853 414.05 206.088C414.178 206.322 414.344 206.498 414.546 206.616C414.749 206.733 414.962 206.792 415.186 206.792Z" fill="#99E39E"/>
<path d="M440 202.197V215.53" stroke="#99E39E" stroke-width="1.25" stroke-linecap="round" stroke-linejoin="round"/>
<path d="M444.166 206.364C444.166 206.364 441.098 202.197 440 202.197C438.902 202.197 435.833 206.364 435.833 206.364" stroke="#99E39E" stroke-width="1.25" stroke-linecap="round" stroke-linejoin="round"/>
<g clip-path="url(#clip0_1_307)">
<path d="M167 310.266C178.82 310.266 188.402 300.684 188.402 288.864C188.402 277.043 178.82 267.461 167 267.461C155.18 267.461 145.598 277.043 145.598 288.864C145.598 300.684 155.18 310.266 167 310.266Z" fill="white"/>
<path d="M167 264.864C162.253 264.864 157.613 266.271 153.666 268.908C149.72 271.546 146.643 275.294 144.827 279.679C143.01 284.065 142.535 288.89 143.461 293.546C144.387 298.201 146.673 302.478 150.029 305.834C153.386 309.191 157.662 311.477 162.318 312.403C166.973 313.329 171.799 312.853 176.184 311.037C180.57 309.22 184.318 306.144 186.955 302.197C189.592 298.251 191 293.611 191 288.864C191.009 285.721 190.399 282.608 189.205 279.701C188.011 276.794 186.256 274.151 184.04 271.922C181.825 269.693 179.192 267.923 176.292 266.712C173.392 265.501 170.282 264.873 167.139 264.864H167ZM167.407 289.677L164.908 298.103H178.274C178.362 298.1 178.45 298.115 178.533 298.146C178.616 298.177 178.692 298.224 178.757 298.284C178.822 298.345 178.874 298.417 178.911 298.498C178.948 298.579 178.968 298.666 178.971 298.754V298.975L177.809 302.985C177.757 303.174 177.643 303.341 177.485 303.457C177.326 303.573 177.133 303.632 176.937 303.624H156.482L159.91 291.944L156.075 293.106L156.947 290.433L160.782 289.271L165.605 272.883C165.658 272.695 165.773 272.529 165.931 272.413C166.089 272.298 166.281 272.238 166.477 272.244H171.649C171.737 272.241 171.826 272.255 171.909 272.286C171.992 272.317 172.068 272.364 172.132 272.425C172.197 272.485 172.249 272.558 172.286 272.639C172.323 272.719 172.343 272.806 172.346 272.895V273.116L168.278 286.946L172.114 285.784L171.3 288.573L167.407 289.677Z" fill="#345D9D"/>
</g>
<path d="M208.136 282.864V271.664H210.056V281.36H215.048V282.864H208.136ZM216.933 282.864V274.8H218.853V282.864H216.933ZM217.893 273.52C217.541 273.52 217.248 273.413 217.013 273.2C216.789 272.976 216.677 272.704 216.677 272.384C216.677 272.053 216.789 271.786 217.013 271.584C217.248 271.37 217.541 271.264 217.893 271.264C218.245 271.264 218.533 271.37 218.757 271.584C218.992 271.786 219.109 272.053 219.109 272.384C219.109 272.704 218.992 272.976 218.757 273.2C218.533 273.413 218.245 273.52 217.893 273.52ZM224.576 282.864C224.032 282.864 223.557 282.778 223.152 282.608C222.757 282.437 222.448 282.154 222.224 281.76C222 281.365 221.888 280.832 221.888 280.16V276.416H220.512V274.8H221.888L222.112 272.672H223.808V274.8H226V276.416H223.808V280.16C223.808 280.565 223.893 280.848 224.064 281.008C224.245 281.157 224.544 281.232 224.96 281.232H225.952V282.864H224.576ZM231.379 283.056C230.579 283.056 229.875 282.885 229.267 282.544C228.659 282.192 228.185 281.701 227.843 281.072C227.502 280.442 227.331 279.717 227.331 278.896C227.331 278.042 227.497 277.296 227.827 276.656C228.169 276.016 228.643 275.514 229.251 275.152C229.87 274.789 230.585 274.608 231.395 274.608C232.185 274.608 232.873 274.784 233.459 275.136C234.046 275.488 234.499 275.962 234.819 276.56C235.139 277.146 235.299 277.808 235.299 278.544C235.299 278.65 235.299 278.768 235.299 278.896C235.299 279.024 235.289 279.157 235.267 279.296H228.707V278.064H233.363C233.342 277.477 233.145 277.018 232.771 276.688C232.398 276.346 231.934 276.176 231.379 276.176C230.985 276.176 230.622 276.266 230.291 276.448C229.961 276.629 229.699 276.901 229.507 277.264C229.315 277.616 229.219 278.064 229.219 278.608V279.072C229.219 279.573 229.31 280.005 229.491 280.368C229.683 280.73 229.939 281.008 230.259 281.2C230.59 281.381 230.958 281.472 231.363 281.472C231.811 281.472 232.179 281.376 232.467 281.184C232.766 280.992 232.985 280.736 233.123 280.416H235.075C234.926 280.917 234.681 281.37 234.339 281.776C233.998 282.17 233.577 282.485 233.075 282.72C232.574 282.944 232.009 283.056 231.379 283.056ZM240.896 283.056C240.107 283.056 239.397 282.88 238.768 282.528C238.149 282.165 237.664 281.669 237.312 281.04C236.971 280.4 236.8 279.674 236.8 278.864C236.8 278.021 236.971 277.285 237.312 276.656C237.664 276.016 238.149 275.514 238.768 275.152C239.397 274.789 240.112 274.608 240.912 274.608C241.915 274.608 242.757 274.874 243.44 275.408C244.123 275.93 244.56 276.65 244.752 277.568H242.736C242.629 277.162 242.405 276.842 242.064 276.608C241.733 276.373 241.339 276.256 240.88 276.256C240.485 276.256 240.123 276.357 239.792 276.56C239.472 276.762 239.216 277.056 239.024 277.44C238.843 277.824 238.752 278.288 238.752 278.832C238.752 279.248 238.805 279.616 238.912 279.936C239.019 280.256 239.168 280.528 239.36 280.752C239.563 280.965 239.792 281.13 240.048 281.248C240.304 281.365 240.581 281.424 240.88 281.424C241.189 281.424 241.467 281.376 241.712 281.28C241.968 281.173 242.181 281.018 242.352 280.816C242.533 280.613 242.661 280.373 242.736 280.096H244.752C244.56 280.992 244.123 281.712 243.44 282.256C242.757 282.789 241.909 283.056 240.896 283.056ZM250.363 283.056C249.595 283.056 248.902 282.88 248.283 282.528C247.675 282.165 247.195 281.669 246.843 281.04C246.502 280.4 246.331 279.669 246.331 278.848C246.331 278.005 246.507 277.269 246.859 276.64C247.211 276 247.691 275.504 248.299 275.152C248.918 274.789 249.611 274.608 250.379 274.608C251.147 274.608 251.835 274.789 252.443 275.152C253.062 275.504 253.542 275.994 253.883 276.624C254.235 277.253 254.411 277.989 254.411 278.832C254.411 279.674 254.235 280.41 253.883 281.04C253.531 281.669 253.046 282.165 252.427 282.528C251.819 282.88 251.131 283.056 250.363 283.056ZM250.363 281.408C250.747 281.408 251.094 281.312 251.403 281.12C251.723 280.928 251.979 280.64 252.171 280.256C252.363 279.872 252.459 279.397 252.459 278.832C252.459 278.266 252.363 277.797 252.171 277.424C251.99 277.04 251.739 276.752 251.419 276.56C251.11 276.368 250.763 276.272 250.379 276.272C250.006 276.272 249.659 276.368 249.339 276.56C249.019 276.752 248.763 277.04 248.571 277.424C248.379 277.797 248.283 278.266 248.283 278.832C248.283 279.397 248.379 279.872 248.571 280.256C248.763 280.64 249.014 280.928 249.323 281.12C249.643 281.312 249.99 281.408 250.363 281.408ZM256.371 282.864V274.8H258.291V282.864H256.371ZM257.331 273.52C256.979 273.52 256.685 273.413 256.451 273.2C256.227 272.976 256.115 272.704 256.115 272.384C256.115 272.053 256.227 271.786 256.451 271.584C256.685 271.37 256.979 271.264 257.331 271.264C257.683 271.264 257.971 271.37 258.195 271.584C258.429 271.786 258.547 272.053 258.547 272.384C258.547 272.704 258.429 272.976 258.195 273.2C257.971 273.413 257.683 273.52 257.331 273.52ZM260.51 282.864V274.8H262.206L262.35 276.144C262.595 275.674 262.947 275.301 263.406 275.024C263.864 274.746 264.408 274.608 265.038 274.608C265.688 274.608 266.243 274.746 266.702 275.024C267.16 275.29 267.512 275.685 267.758 276.208C268.014 276.73 268.142 277.381 268.142 278.16V282.864H266.222V278.336C266.222 277.664 266.072 277.146 265.774 276.784C265.475 276.421 265.032 276.24 264.446 276.24C264.062 276.24 263.715 276.33 263.406 276.512C263.107 276.693 262.867 276.96 262.686 277.312C262.515 277.653 262.43 278.069 262.43 278.56V282.864H260.51Z" fill="white"/>
<path d="M208.05 305.864V296.064H211.494C212.185 296.064 212.754 296.176 213.202 296.4C213.659 296.614 214 296.913 214.224 297.296C214.448 297.669 214.56 298.089 214.56 298.556C214.56 299.06 214.448 299.48 214.224 299.816C214.009 300.152 213.725 300.408 213.37 300.586C213.025 300.763 212.656 300.87 212.264 300.908L212.46 300.768C212.88 300.777 213.267 300.889 213.622 301.104C213.977 301.318 214.257 301.608 214.462 301.972C214.677 302.336 214.784 302.742 214.784 303.19C214.784 303.684 214.663 304.137 214.42 304.548C214.177 304.949 213.818 305.271 213.342 305.514C212.875 305.747 212.297 305.864 211.606 305.864H208.05ZM209.226 304.884H211.48C212.143 304.884 212.656 304.73 213.02 304.422C213.393 304.104 213.58 303.666 213.58 303.106C213.58 302.555 213.389 302.116 213.006 301.79C212.633 301.454 212.115 301.286 211.452 301.286H209.226V304.884ZM209.226 300.348H211.41C212.045 300.348 212.525 300.198 212.852 299.9C213.188 299.601 213.356 299.195 213.356 298.682C213.356 298.187 213.188 297.79 212.852 297.492C212.525 297.193 212.031 297.044 211.368 297.044H209.226V300.348ZM218.549 305.864V297.03H215.623V296.064H222.651V297.03H219.725V305.864H218.549ZM227.851 306.032C226.899 306.032 226.073 305.822 225.373 305.402C224.682 304.972 224.15 304.38 223.777 303.624C223.404 302.858 223.217 301.972 223.217 300.964C223.217 299.956 223.404 299.074 223.777 298.318C224.15 297.552 224.682 296.96 225.373 296.54C226.073 296.11 226.899 295.896 227.851 295.896C228.971 295.896 229.881 296.162 230.581 296.694C231.281 297.226 231.729 297.977 231.925 298.948H230.623C230.474 298.341 230.17 297.856 229.713 297.492C229.256 297.118 228.635 296.932 227.851 296.932C227.151 296.932 226.544 297.095 226.031 297.422C225.518 297.739 225.121 298.201 224.841 298.808C224.561 299.405 224.421 300.124 224.421 300.964C224.421 301.804 224.561 302.527 224.841 303.134C225.121 303.731 225.518 304.193 226.031 304.52C226.544 304.837 227.151 304.996 227.851 304.996C228.635 304.996 229.256 304.818 229.713 304.464C230.17 304.1 230.474 303.619 230.623 303.022H231.925C231.729 303.964 231.281 304.702 230.581 305.234C229.881 305.766 228.971 306.032 227.851 306.032ZM232.972 307.194L236.486 295.168H237.648L234.134 307.194H232.972ZM242.641 306.032C241.969 306.032 241.357 305.896 240.807 305.626C240.265 305.355 239.831 304.944 239.505 304.394C239.178 303.834 239.015 303.12 239.015 302.252V296.064H240.191V302.266C240.191 302.9 240.293 303.418 240.499 303.82C240.713 304.221 241.007 304.515 241.381 304.702C241.754 304.888 242.183 304.982 242.669 304.982C243.163 304.982 243.593 304.888 243.957 304.702C244.321 304.515 244.605 304.221 244.811 303.82C245.016 303.418 245.119 302.9 245.119 302.266V296.064H246.294V302.252C246.294 303.12 246.131 303.834 245.805 304.394C245.478 304.944 245.039 305.355 244.489 305.626C243.938 305.896 243.322 306.032 242.641 306.032ZM251.408 306.032C250.69 306.032 250.064 305.901 249.532 305.64C249 305.378 248.59 305.014 248.3 304.548C248.011 304.081 247.866 303.54 247.866 302.924H249.098C249.098 303.306 249.187 303.661 249.364 303.988C249.542 304.305 249.798 304.562 250.134 304.758C250.48 304.944 250.904 305.038 251.408 305.038C251.847 305.038 252.22 304.968 252.528 304.828C252.846 304.678 253.084 304.478 253.242 304.226C253.41 303.974 253.494 303.689 253.494 303.372C253.494 302.989 253.41 302.681 253.242 302.448C253.084 302.205 252.864 302.009 252.584 301.86C252.304 301.71 251.978 301.58 251.604 301.468C251.24 301.346 250.858 301.22 250.456 301.09C249.682 300.828 249.112 300.502 248.748 300.11C248.384 299.718 248.202 299.209 248.202 298.584C248.202 298.052 248.324 297.585 248.566 297.184C248.818 296.782 249.173 296.47 249.63 296.246C250.097 296.012 250.648 295.896 251.282 295.896C251.908 295.896 252.449 296.012 252.906 296.246C253.373 296.479 253.737 296.801 253.998 297.212C254.26 297.613 254.39 298.08 254.39 298.612H253.158C253.158 298.341 253.088 298.075 252.948 297.814C252.808 297.552 252.594 297.338 252.304 297.17C252.024 296.992 251.67 296.904 251.24 296.904C250.886 296.894 250.568 296.955 250.288 297.086C250.018 297.207 249.803 297.384 249.644 297.618C249.495 297.851 249.42 298.136 249.42 298.472C249.42 298.789 249.486 299.046 249.616 299.242C249.756 299.438 249.952 299.606 250.204 299.746C250.466 299.876 250.769 299.998 251.114 300.11C251.46 300.222 251.842 300.348 252.262 300.488C252.738 300.646 253.158 300.842 253.522 301.076C253.896 301.3 254.185 301.589 254.39 301.944C254.605 302.298 254.712 302.751 254.712 303.302C254.712 303.768 254.586 304.212 254.334 304.632C254.092 305.042 253.728 305.378 253.242 305.64C252.757 305.901 252.146 306.032 251.408 306.032ZM256.407 305.864V296.064H259.291C260.439 296.064 261.382 296.264 262.119 296.666C262.866 297.058 263.417 297.622 263.771 298.36C264.135 299.088 264.317 299.965 264.317 300.992C264.317 302 264.135 302.868 263.771 303.596C263.417 304.324 262.866 304.884 262.119 305.276C261.382 305.668 260.439 305.864 259.291 305.864H256.407ZM257.583 304.884H259.263C260.215 304.884 260.971 304.73 261.531 304.422C262.091 304.104 262.493 303.656 262.735 303.078C262.978 302.49 263.099 301.794 263.099 300.992C263.099 300.17 262.978 299.466 262.735 298.878C262.493 298.29 262.091 297.837 261.531 297.52C260.971 297.202 260.215 297.044 259.263 297.044H257.583V304.884Z" fill="white" fill-opacity="0.8"/>
<path d="M385.416 293.864V284.472L383.496 284.952V283.768L386.008 282.664H387.048V293.864H385.416ZM389.947 293.944C389.637 293.944 389.381 293.848 389.179 293.656C388.987 293.453 388.891 293.213 388.891 292.936C388.891 292.648 388.987 292.408 389.179 292.216C389.381 292.013 389.637 291.912 389.947 291.912C390.245 291.912 390.491 292.013 390.683 292.216C390.885 292.408 390.987 292.648 390.987 292.936C390.987 293.213 390.885 293.453 390.683 293.656C390.491 293.848 390.245 293.944 389.947 293.944ZM396.552 294.056C395.549 294.056 394.691 293.816 393.976 293.336C393.261 292.845 392.712 292.168 392.328 291.304C391.944 290.429 391.752 289.416 391.752 288.264C391.752 287.112 391.944 286.104 392.328 285.24C392.712 284.365 393.261 283.688 393.976 283.208C394.691 282.717 395.549 282.472 396.552 282.472C397.544 282.472 398.392 282.717 399.096 283.208C399.811 283.688 400.36 284.365 400.744 285.24C401.128 286.104 401.32 287.112 401.32 288.264C401.32 289.416 401.128 290.429 400.744 291.304C400.36 292.168 399.811 292.845 399.096 293.336C398.392 293.816 397.544 294.056 396.552 294.056ZM396.536 292.632C397.155 292.632 397.699 292.456 398.168 292.104C398.637 291.752 399.005 291.25 399.272 290.6C399.549 289.949 399.688 289.17 399.688 288.264C399.688 287.357 399.549 286.578 399.272 285.928C399.005 285.277 398.637 284.781 398.168 284.44C397.699 284.088 397.155 283.912 396.536 283.912C395.928 283.912 395.384 284.088 394.904 284.44C394.435 284.781 394.061 285.277 393.784 285.928C393.517 286.578 393.384 287.357 393.384 288.264C393.384 289.17 393.517 289.949 393.784 290.6C394.061 291.25 394.435 291.752 394.904 292.104C395.384 292.456 395.928 292.632 396.536 292.632ZM407.102 294.056C406.323 294.056 405.646 293.917 405.07 293.64C404.494 293.352 404.041 292.968 403.71 292.488C403.39 291.997 403.193 291.442 403.118 290.824H404.67C404.787 291.378 405.059 291.832 405.486 292.184C405.913 292.525 406.457 292.696 407.118 292.696C407.598 292.696 408.014 292.578 408.366 292.344C408.718 292.109 408.99 291.794 409.182 291.4C409.374 291.005 409.47 290.562 409.47 290.072C409.47 289.56 409.369 289.117 409.166 288.744C408.974 288.36 408.702 288.061 408.35 287.848C408.009 287.634 407.609 287.528 407.15 287.528C406.595 287.528 406.115 287.656 405.71 287.912C405.315 288.168 405.022 288.488 404.83 288.872H403.294L404.238 282.664H410.254V284.056H405.454L404.862 287.192C405.118 286.904 405.459 286.669 405.886 286.488C406.323 286.296 406.819 286.2 407.374 286.2C407.939 286.2 408.446 286.301 408.894 286.504C409.342 286.706 409.721 286.984 410.03 287.336C410.35 287.688 410.595 288.098 410.766 288.568C410.937 289.026 411.022 289.522 411.022 290.056C411.022 290.621 410.931 291.144 410.75 291.624C410.569 292.104 410.307 292.53 409.966 292.904C409.625 293.266 409.214 293.549 408.734 293.752C408.254 293.954 407.71 294.056 407.102 294.056ZM414.402 293.864L420.85 282.664H422.434L415.986 293.864H414.402ZM421.746 294.056C421.256 294.056 420.813 293.944 420.418 293.72C420.024 293.496 419.709 293.181 419.474 292.776C419.24 292.36 419.122 291.874 419.122 291.32C419.122 290.744 419.24 290.253 419.474 289.848C419.709 289.442 420.024 289.128 420.418 288.904C420.813 288.68 421.256 288.568 421.746 288.568C422.248 288.568 422.69 288.68 423.074 288.904C423.469 289.128 423.778 289.442 424.002 289.848C424.237 290.253 424.354 290.744 424.354 291.32C424.354 291.874 424.237 292.36 424.002 292.776C423.778 293.181 423.469 293.496 423.074 293.72C422.68 293.944 422.237 294.056 421.746 294.056ZM421.73 292.872C421.976 292.872 422.194 292.813 422.386 292.696C422.589 292.578 422.749 292.408 422.866 292.184C422.994 291.949 423.058 291.656 423.058 291.304C423.058 290.952 423 290.664 422.882 290.44C422.765 290.205 422.605 290.029 422.402 289.912C422.21 289.794 421.992 289.736 421.746 289.736C421.512 289.736 421.293 289.794 421.09 289.912C420.888 290.029 420.722 290.205 420.594 290.44C420.477 290.664 420.418 290.952 420.418 291.304C420.418 291.656 420.477 291.949 420.594 292.184C420.722 292.408 420.882 292.578 421.074 292.696C421.277 292.813 421.496 292.872 421.73 292.872ZM415.202 287.976C414.701 287.976 414.253 287.864 413.858 287.64C413.464 287.416 413.149 287.101 412.914 286.696C412.68 286.28 412.562 285.789 412.562 285.224C412.562 284.658 412.68 284.173 412.914 283.768C413.149 283.362 413.464 283.048 413.858 282.824C414.264 282.6 414.712 282.488 415.202 282.488C415.704 282.488 416.152 282.6 416.546 282.824C416.941 283.048 417.25 283.362 417.474 283.768C417.709 284.173 417.826 284.658 417.826 285.224C417.826 285.789 417.709 286.28 417.474 286.696C417.25 287.101 416.936 287.416 416.53 287.64C416.136 287.864 415.693 287.976 415.202 287.976ZM415.186 286.792C415.432 286.792 415.65 286.733 415.842 286.616C416.045 286.498 416.205 286.328 416.322 286.104C416.44 285.869 416.498 285.576 416.498 285.224C416.498 284.872 416.44 284.578 416.322 284.344C416.205 284.109 416.045 283.933 415.842 283.816C415.65 283.698 415.437 283.64 415.202 283.64C414.978 283.64 414.76 283.698 414.546 283.816C414.344 283.933 414.178 284.109 414.05 284.344C413.933 284.578 413.874 284.872 413.874 285.224C413.874 285.565 413.933 285.853 414.05 286.088C414.178 286.322 414.344 286.498 414.546 286.616C414.749 286.733 414.962 286.792 415.186 286.792Z" fill="#99E39E"/>
<path d="M440 282.197V295.53" stroke="#99E39E" stroke-width="1.25" stroke-linecap="round" stroke-linejoin="round"/>
<path d="M444.166 286.364C444.166 286.364 441.098 282.197 440 282.197C438.902 282.197 435.833 286.364 435.833 286.364" stroke="#99E39E" stroke-width="1.25" stroke-linecap="round" stroke-linejoin="round"/>
<path d="M167.002 354.486C171.57 354.486 175.274 352.332 175.274 349.675C175.274 347.018 171.57 344.864 167.002 344.864C162.433 344.864 158.73 347.018 158.73 349.675C158.73 352.332 162.433 354.486 167.002 354.486Z" fill="#E6007A"/>
<path d="M167.002 390.735C171.57 390.735 175.274 388.581 175.274 385.924C175.274 383.267 171.57 381.113 167.002 381.113C162.433 381.113 158.73 383.267 158.73 385.924C158.73 388.581 162.433 390.735 167.002 390.735Z" fill="#E6007A"/>
<path d="M155.475 361.146C157.759 357.19 157.744 352.905 155.441 351.575C153.139 350.246 149.421 352.376 147.136 356.332C144.852 360.288 144.867 364.573 147.17 365.902C149.472 367.232 153.19 365.102 155.475 361.146Z" fill="#E6007A"/>
<path d="M186.861 379.267C189.145 375.311 189.132 371.027 186.831 369.698C184.53 368.37 180.813 370.5 178.529 374.456C176.245 378.413 176.258 382.697 178.559 384.025C180.86 385.354 184.577 383.223 186.861 379.267Z" fill="#E6007A"/>
<path d="M155.441 384.024C157.743 382.695 157.758 378.41 155.474 374.453C153.19 370.497 149.472 368.368 147.169 369.697C144.867 371.026 144.852 375.311 147.136 379.268C149.42 383.224 153.138 385.353 155.441 384.024Z" fill="#E6007A"/>
<path d="M186.834 365.903C189.135 364.575 189.148 360.291 186.864 356.334C184.58 352.378 180.863 350.248 178.562 351.576C176.261 352.905 176.247 357.189 178.531 361.145C180.816 365.102 184.533 367.232 186.834 365.903Z" fill="#E6007A"/>
<path d="M208.136 361.799V350.599H212.168C213.064 350.599 213.805 350.754 214.392 351.063C214.979 351.362 215.416 351.767 215.704 352.279C215.992 352.791 216.136 353.378 216.136 354.039C216.136 354.658 215.997 355.229 215.72 355.751C215.443 356.263 215.011 356.679 214.424 356.999C213.837 357.309 213.085 357.463 212.168 357.463H210.056V361.799H208.136ZM210.056 355.895H212.056C212.813 355.895 213.357 355.73 213.688 355.399C214.019 355.058 214.184 354.605 214.184 354.039C214.184 353.453 214.019 352.994 213.688 352.663C213.357 352.333 212.813 352.167 212.056 352.167H210.056V355.895ZM221.066 361.991C220.298 361.991 219.605 361.815 218.986 361.463C218.378 361.101 217.898 360.605 217.546 359.975C217.205 359.335 217.034 358.605 217.034 357.783C217.034 356.941 217.21 356.205 217.562 355.575C217.914 354.935 218.394 354.439 219.002 354.087C219.621 353.725 220.314 353.543 221.082 353.543C221.85 353.543 222.538 353.725 223.146 354.087C223.765 354.439 224.245 354.93 224.586 355.559C224.938 356.189 225.114 356.925 225.114 357.767C225.114 358.61 224.938 359.346 224.586 359.975C224.234 360.605 223.749 361.101 223.13 361.463C222.522 361.815 221.834 361.991 221.066 361.991ZM221.066 360.343C221.45 360.343 221.797 360.247 222.106 360.055C222.426 359.863 222.682 359.575 222.874 359.191C223.066 358.807 223.162 358.333 223.162 357.767C223.162 357.202 223.066 356.733 222.874 356.359C222.693 355.975 222.442 355.687 222.122 355.495C221.813 355.303 221.466 355.207 221.082 355.207C220.709 355.207 220.362 355.303 220.042 355.495C219.722 355.687 219.466 355.975 219.274 356.359C219.082 356.733 218.986 357.202 218.986 357.767C218.986 358.333 219.082 358.807 219.274 359.191C219.466 359.575 219.717 359.863 220.026 360.055C220.346 360.247 220.693 360.343 221.066 360.343ZM226.994 361.799V350.279H228.914V361.799H226.994ZM236.256 361.799L232.688 357.383L235.888 353.735H238.176L234.192 358.167V356.679L238.656 361.799H236.256ZM231.056 361.799V350.279H232.976V361.799H231.056ZM242.401 361.991C241.739 361.991 241.19 361.879 240.753 361.655C240.315 361.431 239.99 361.133 239.777 360.759C239.563 360.386 239.457 359.981 239.457 359.543C239.457 359.031 239.585 358.589 239.841 358.215C240.107 357.842 240.497 357.554 241.009 357.351C241.521 357.138 242.15 357.031 242.897 357.031H244.929C244.929 356.605 244.87 356.253 244.753 355.975C244.635 355.687 244.454 355.474 244.209 355.335C243.963 355.197 243.649 355.127 243.265 355.127C242.827 355.127 242.454 355.229 242.145 355.431C241.835 355.623 241.643 355.922 241.569 356.327H239.681C239.745 355.751 239.937 355.261 240.257 354.855C240.577 354.439 240.998 354.119 241.521 353.895C242.054 353.661 242.635 353.543 243.265 353.543C244.022 353.543 244.667 353.677 245.201 353.943C245.734 354.199 246.139 354.573 246.417 355.063C246.705 355.543 246.849 356.125 246.849 356.807V361.799H245.217L245.025 360.503C244.918 360.717 244.779 360.914 244.609 361.095C244.449 361.277 244.262 361.437 244.049 361.575C243.835 361.703 243.59 361.805 243.313 361.879C243.046 361.954 242.742 361.991 242.401 361.991ZM242.833 360.471C243.142 360.471 243.414 360.418 243.649 360.311C243.894 360.194 244.102 360.034 244.273 359.831C244.454 359.618 244.593 359.383 244.689 359.127C244.785 358.871 244.849 358.599 244.881 358.311V358.279H243.105C242.731 358.279 242.422 358.327 242.177 358.423C241.931 358.509 241.755 358.637 241.649 358.807C241.542 358.978 241.489 359.175 241.489 359.399C241.489 359.623 241.542 359.815 241.649 359.975C241.755 360.135 241.91 360.258 242.113 360.343C242.315 360.429 242.555 360.471 242.833 360.471ZM252.484 361.991C251.737 361.991 251.071 361.81 250.484 361.447C249.897 361.085 249.439 360.583 249.108 359.943C248.788 359.303 248.628 358.578 248.628 357.767C248.628 356.957 248.793 356.237 249.124 355.607C249.455 354.967 249.913 354.466 250.5 354.103C251.097 353.73 251.769 353.543 252.516 353.543C253.124 353.543 253.652 353.661 254.1 353.895C254.559 354.119 254.921 354.439 255.188 354.855V350.279H257.108V361.799H255.38L255.188 360.631C255.017 360.866 254.809 361.09 254.564 361.303C254.319 361.506 254.025 361.671 253.684 361.799C253.343 361.927 252.943 361.991 252.484 361.991ZM252.884 360.327C253.343 360.327 253.748 360.221 254.1 360.007C254.452 359.783 254.724 359.479 254.916 359.095C255.108 358.711 255.204 358.269 255.204 357.767C255.204 357.266 255.108 356.823 254.916 356.439C254.724 356.055 254.452 355.757 254.1 355.543C253.748 355.33 253.343 355.223 252.884 355.223C252.447 355.223 252.052 355.33 251.7 355.543C251.348 355.757 251.071 356.055 250.868 356.439C250.676 356.823 250.58 357.266 250.58 357.767C250.58 358.269 250.676 358.711 250.868 359.095C251.071 359.479 251.348 359.783 251.7 360.007C252.052 360.221 252.447 360.327 252.884 360.327ZM263.004 361.991C262.236 361.991 261.543 361.815 260.924 361.463C260.316 361.101 259.836 360.605 259.484 359.975C259.143 359.335 258.972 358.605 258.972 357.783C258.972 356.941 259.148 356.205 259.5 355.575C259.852 354.935 260.332 354.439 260.94 354.087C261.559 353.725 262.252 353.543 263.02 353.543C263.788 353.543 264.476 353.725 265.084 354.087C265.703 354.439 266.183 354.93 266.524 355.559C266.876 356.189 267.052 356.925 267.052 357.767C267.052 358.61 266.876 359.346 266.524 359.975C266.172 360.605 265.687 361.101 265.068 361.463C264.46 361.815 263.772 361.991 263.004 361.991ZM263.004 360.343C263.388 360.343 263.735 360.247 264.044 360.055C264.364 359.863 264.62 359.575 264.812 359.191C265.004 358.807 265.1 358.333 265.1 357.767C265.1 357.202 265.004 356.733 264.812 356.359C264.631 355.975 264.38 355.687 264.06 355.495C263.751 355.303 263.404 355.207 263.02 355.207C262.647 355.207 262.3 355.303 261.98 355.495C261.66 355.687 261.404 355.975 261.212 356.359C261.02 356.733 260.924 357.202 260.924 357.767C260.924 358.333 261.02 358.807 261.212 359.191C261.404 359.575 261.655 359.863 261.964 360.055C262.284 360.247 262.631 360.343 263.004 360.343ZM272.123 361.799C271.579 361.799 271.104 361.714 270.699 361.543C270.304 361.373 269.995 361.09 269.771 360.695C269.547 360.301 269.435 359.767 269.435 359.095V355.351H268.059V353.735H269.435L269.659 351.607H271.355V353.735H273.547V355.351H271.355V359.095C271.355 359.501 271.44 359.783 271.611 359.943C271.792 360.093 272.091 360.167 272.507 360.167H273.499V361.799H272.123Z" fill="white"/>
<path d="M208.05 384.799V374.999H211.494C212.185 374.999 212.754 375.111 213.202 375.335C213.659 375.55 214 375.849 214.224 376.231C214.448 376.605 214.56 377.025 214.56 377.491C214.56 377.995 214.448 378.415 214.224 378.751C214.009 379.087 213.725 379.344 213.37 379.521C213.025 379.699 212.656 379.806 212.264 379.843L212.46 379.703C212.88 379.713 213.267 379.825 213.622 380.039C213.977 380.254 214.257 380.543 214.462 380.907C214.677 381.271 214.784 381.677 214.784 382.125C214.784 382.62 214.663 383.073 214.42 383.483C214.177 383.885 213.818 384.207 213.342 384.449C212.875 384.683 212.297 384.799 211.606 384.799H208.05ZM209.226 383.819H211.48C212.143 383.819 212.656 383.665 213.02 383.357C213.393 383.04 213.58 382.601 213.58 382.041C213.58 381.491 213.389 381.052 213.006 380.725C212.633 380.389 212.115 380.221 211.452 380.221H209.226V383.819ZM209.226 379.283H211.41C212.045 379.283 212.525 379.134 212.852 378.835C213.188 378.537 213.356 378.131 213.356 377.617C213.356 377.123 213.188 376.726 212.852 376.427C212.525 376.129 212.031 375.979 211.368 375.979H209.226V379.283ZM218.549 384.799V375.965H215.623V374.999H222.651V375.965H219.725V384.799H218.549ZM227.851 384.967C226.899 384.967 226.073 384.757 225.373 384.337C224.682 383.908 224.15 383.315 223.777 382.559C223.404 381.794 223.217 380.907 223.217 379.899C223.217 378.891 223.404 378.009 223.777 377.253C224.15 376.488 224.682 375.895 225.373 375.475C226.073 375.046 226.899 374.831 227.851 374.831C228.971 374.831 229.881 375.097 230.581 375.629C231.281 376.161 231.729 376.913 231.925 377.883H230.623C230.474 377.277 230.17 376.791 229.713 376.427C229.256 376.054 228.635 375.867 227.851 375.867C227.151 375.867 226.544 376.031 226.031 376.357C225.518 376.675 225.121 377.137 224.841 377.743C224.561 378.341 224.421 379.059 224.421 379.899C224.421 380.739 224.561 381.463 224.841 382.069C225.121 382.667 225.518 383.129 226.031 383.455C226.544 383.773 227.151 383.931 227.851 383.931C228.635 383.931 229.256 383.754 229.713 383.399C230.17 383.035 230.474 382.555 230.623 381.957H231.925C231.729 382.9 231.281 383.637 230.581 384.169C229.881 384.701 228.971 384.967 227.851 384.967ZM232.972 386.129L236.486 374.103H237.648L234.134 386.129H232.972ZM242.641 384.967C241.969 384.967 241.357 384.832 240.807 384.561C240.265 384.291 239.831 383.88 239.505 383.329C239.178 382.769 239.015 382.055 239.015 381.187V374.999H240.191V381.201C240.191 381.836 240.293 382.354 240.499 382.755C240.713 383.157 241.007 383.451 241.381 383.637C241.754 383.824 242.183 383.917 242.669 383.917C243.163 383.917 243.593 383.824 243.957 383.637C244.321 383.451 244.605 383.157 244.811 382.755C245.016 382.354 245.119 381.836 245.119 381.201V374.999H246.294V381.187C246.294 382.055 246.131 382.769 245.805 383.329C245.478 383.88 245.039 384.291 244.489 384.561C243.938 384.832 243.322 384.967 242.641 384.967ZM251.408 384.967C250.69 384.967 250.064 384.837 249.532 384.575C249 384.314 248.59 383.95 248.3 383.483C248.011 383.017 247.866 382.475 247.866 381.859H249.098C249.098 382.242 249.187 382.597 249.364 382.923C249.542 383.241 249.798 383.497 250.134 383.693C250.48 383.88 250.904 383.973 251.408 383.973C251.847 383.973 252.22 383.903 252.528 383.763C252.846 383.614 253.084 383.413 253.242 383.161C253.41 382.909 253.494 382.625 253.494 382.307C253.494 381.925 253.41 381.617 253.242 381.383C253.084 381.141 252.864 380.945 252.584 380.795C252.304 380.646 251.978 380.515 251.604 380.403C251.24 380.282 250.858 380.156 250.456 380.025C249.682 379.764 249.112 379.437 248.748 379.045C248.384 378.653 248.202 378.145 248.202 377.519C248.202 376.987 248.324 376.521 248.566 376.119C248.818 375.718 249.173 375.405 249.63 375.181C250.097 374.948 250.648 374.831 251.282 374.831C251.908 374.831 252.449 374.948 252.906 375.181C253.373 375.415 253.737 375.737 253.998 376.147C254.26 376.549 254.39 377.015 254.39 377.547H253.158C253.158 377.277 253.088 377.011 252.948 376.749C252.808 376.488 252.594 376.273 252.304 376.105C252.024 375.928 251.67 375.839 251.24 375.839C250.886 375.83 250.568 375.891 250.288 376.021C250.018 376.143 249.803 376.32 249.644 376.553C249.495 376.787 249.42 377.071 249.42 377.407C249.42 377.725 249.486 377.981 249.616 378.177C249.756 378.373 249.952 378.541 250.204 378.681C250.466 378.812 250.769 378.933 251.114 379.045C251.46 379.157 251.842 379.283 252.262 379.423C252.738 379.582 253.158 379.778 253.522 380.011C253.896 380.235 254.185 380.525 254.39 380.879C254.605 381.234 254.712 381.687 254.712 382.237C254.712 382.704 254.586 383.147 254.334 383.567C254.092 383.978 253.728 384.314 253.242 384.575C252.757 384.837 252.146 384.967 251.408 384.967ZM256.407 384.799V374.999H259.291C260.439 374.999 261.382 375.2 262.119 375.601C262.866 375.993 263.417 376.558 263.771 377.295C264.135 378.023 264.317 378.901 264.317 379.927C264.317 380.935 264.135 381.803 263.771 382.531C263.417 383.259 262.866 383.819 262.119 384.211C261.382 384.603 260.439 384.799 259.291 384.799H256.407ZM257.583 383.819H259.263C260.215 383.819 260.971 383.665 261.531 383.357C262.091 383.04 262.493 382.592 262.735 382.013C262.978 381.425 263.099 380.73 263.099 379.927C263.099 379.106 262.978 378.401 262.735 377.813C262.493 377.225 262.091 376.773 261.531 376.455C260.971 376.138 260.215 375.979 259.263 375.979H257.583V383.819Z" fill="white" fill-opacity="0.8"/>
<path d="M385.416 372.799V363.407L383.496 363.887V362.703L386.008 361.599H387.048V372.799H385.416ZM389.947 372.879C389.637 372.879 389.381 372.783 389.179 372.591C388.987 372.389 388.891 372.149 388.891 371.871C388.891 371.583 388.987 371.343 389.179 371.151C389.381 370.949 389.637 370.847 389.947 370.847C390.245 370.847 390.491 370.949 390.683 371.151C390.885 371.343 390.987 371.583 390.987 371.871C390.987 372.149 390.885 372.389 390.683 372.591C390.491 372.783 390.245 372.879 389.947 372.879ZM396.552 372.991C395.549 372.991 394.691 372.751 393.976 372.271C393.261 371.781 392.712 371.103 392.328 370.239C391.944 369.365 391.752 368.351 391.752 367.199C391.752 366.047 391.944 365.039 392.328 364.175C392.712 363.301 393.261 362.623 393.976 362.143C394.691 361.653 395.549 361.407 396.552 361.407C397.544 361.407 398.392 361.653 399.096 362.143C399.811 362.623 400.36 363.301 400.744 364.175C401.128 365.039 401.32 366.047 401.32 367.199C401.32 368.351 401.128 369.365 400.744 370.239C400.36 371.103 399.811 371.781 399.096 372.271C398.392 372.751 397.544 372.991 396.552 372.991ZM396.536 371.567C397.155 371.567 397.699 371.391 398.168 371.039C398.637 370.687 399.005 370.186 399.272 369.535C399.549 368.885 399.688 368.106 399.688 367.199C399.688 366.293 399.549 365.514 399.272 364.863C399.005 364.213 398.637 363.717 398.168 363.375C397.699 363.023 397.155 362.847 396.536 362.847C395.928 362.847 395.384 363.023 394.904 363.375C394.435 363.717 394.061 364.213 393.784 364.863C393.517 365.514 393.384 366.293 393.384 367.199C393.384 368.106 393.517 368.885 393.784 369.535C394.061 370.186 394.435 370.687 394.904 371.039C395.384 371.391 395.928 371.567 396.536 371.567ZM407.102 372.991C406.323 372.991 405.646 372.853 405.07 372.575C404.494 372.287 404.041 371.903 403.71 371.423C403.39 370.933 403.193 370.378 403.118 369.759H404.67C404.787 370.314 405.059 370.767 405.486 371.119C405.913 371.461 406.457 371.631 407.118 371.631C407.598 371.631 408.014 371.514 408.366 371.279C408.718 371.045 408.99 370.73 409.182 370.335C409.374 369.941 409.47 369.498 409.47 369.007C409.47 368.495 409.369 368.053 409.166 367.679C408.974 367.295 408.702 366.997 408.35 366.783C408.009 366.57 407.609 366.463 407.15 366.463C406.595 366.463 406.115 366.591 405.71 366.847C405.315 367.103 405.022 367.423 404.83 367.807H403.294L404.238 361.599H410.254V362.991H405.454L404.862 366.127C405.118 365.839 405.459 365.605 405.886 365.423C406.323 365.231 406.819 365.135 407.374 365.135C407.939 365.135 408.446 365.237 408.894 365.439C409.342 365.642 409.721 365.919 410.03 366.271C410.35 366.623 410.595 367.034 410.766 367.503C410.937 367.962 411.022 368.458 411.022 368.991C411.022 369.557 410.931 370.079 410.75 370.559C410.569 371.039 410.307 371.466 409.966 371.839C409.625 372.202 409.214 372.485 408.734 372.687C408.254 372.89 407.71 372.991 407.102 372.991ZM414.402 372.799L420.85 361.599H422.434L415.986 372.799H414.402ZM421.746 372.991C421.256 372.991 420.813 372.879 420.418 372.655C420.024 372.431 419.709 372.117 419.474 371.711C419.24 371.295 419.122 370.81 419.122 370.255C419.122 369.679 419.24 369.189 419.474 368.783C419.709 368.378 420.024 368.063 420.418 367.839C420.813 367.615 421.256 367.503 421.746 367.503C422.248 367.503 422.69 367.615 423.074 367.839C423.469 368.063 423.778 368.378 424.002 368.783C424.237 369.189 424.354 369.679 424.354 370.255C424.354 370.81 424.237 371.295 424.002 371.711C423.778 372.117 423.469 372.431 423.074 372.655C422.68 372.879 422.237 372.991 421.746 372.991ZM421.73 371.807C421.976 371.807 422.194 371.749 422.386 371.631C422.589 371.514 422.749 371.343 422.866 371.119C422.994 370.885 423.058 370.591 423.058 370.239C423.058 369.887 423 369.599 422.882 369.375C422.765 369.141 422.605 368.965 422.402 368.847C422.21 368.73 421.992 368.671 421.746 368.671C421.512 368.671 421.293 368.73 421.09 368.847C420.888 368.965 420.722 369.141 420.594 369.375C420.477 369.599 420.418 369.887 420.418 370.239C420.418 370.591 420.477 370.885 420.594 371.119C420.722 371.343 420.882 371.514 421.074 371.631C421.277 371.749 421.496 371.807 421.73 371.807ZM415.202 366.911C414.701 366.911 414.253 366.799 413.858 366.575C413.464 366.351 413.149 366.037 412.914 365.631C412.68 365.215 412.562 364.725 412.562 364.159C412.562 363.594 412.68 363.109 412.914 362.703C413.149 362.298 413.464 361.983 413.858 361.759C414.264 361.535 414.712 361.423 415.202 361.423C415.704 361.423 416.152 361.535 416.546 361.759C416.941 361.983 417.25 362.298 417.474 362.703C417.709 363.109 417.826 363.594 417.826 364.159C417.826 364.725 417.709 365.215 417.474 365.631C417.25 366.037 416.936 366.351 416.53 366.575C416.136 366.799 415.693 366.911 415.202 366.911ZM415.186 365.727C415.432 365.727 415.65 365.669 415.842 365.551C416.045 365.434 416.205 365.263 416.322 365.039C416.44 364.805 416.498 364.511 416.498 364.159C416.498 363.807 416.44 363.514 416.322 363.279C416.205 363.045 416.045 362.869 415.842 362.751C415.65 362.634 415.437 362.575 415.202 362.575C414.978 362.575 414.76 362.634 414.546 362.751C414.344 362.869 414.178 363.045 414.05 363.279C413.933 363.514 413.874 363.807 413.874 364.159C413.874 364.501 413.933 364.789 414.05 365.023C414.178 365.258 414.344 365.434 414.546 365.551C414.749 365.669 414.962 365.727 415.186 365.727Z" fill="#99E39E"/>
<path d="M440 361.133V374.466" stroke="#99E39E" stroke-width="1.25" stroke-linecap="round" stroke-linejoin="round"/>
<path d="M444.166 365.299C444.166 365.299 441.098 361.133 440 361.133C438.902 361.133 435.833 365.299 435.833 365.299" stroke="#99E39E" stroke-width="1.25" stroke-linecap="round" stroke-linejoin="round"/>
</g>
<defs>
<filter id="filter0_d_1_307" x="79" y="-15.1362" width="435" height="477.871" filterUnits="userSpaceOnUse" color-interpolation-filters="sRGB">
<feFlood flood-opacity="0" result="BackgroundImageFix"/>
<feColorMatrix in="SourceAlpha" type="matrix" values="0 0 0 0 0 0 0 0 0 0 0 0 0 0 0 0 0 0 127 0" result="hardAlpha"/>
<feOffset dy="12"/>
<feGaussianBlur stdDeviation="14"/>
<feColorMatrix type="matrix" values="0 0 0 0 0.0375 0 0 0 0 0.0354687 0 0 0 0 0.0354687 0 0 0 0.32 0"/>
<feBlend mode="normal" in2="BackgroundImageFix" result="effect1_dropShadow_1_307"/>
<feBlend mode="normal" in="SourceGraphic" in2="effect1_dropShadow_1_307" result="shape"/>
</filter>
<linearGradient id="paint0_linear_1_307" x1="1.51003" y1="127.337" x2="614.01" y2="127.337" gradientUnits="userSpaceOnUse">
<stop stop-color="#000510"/>
<stop offset="0.505208" stop-color="#E79740"/>
<stop offset="1" stop-color="#000510" stop-opacity="0.04"/>
</linearGradient>
<linearGradient id="paint1_linear_1_307" x1="-6.81997" y1="256.337" x2="611.56" y2="256.337" gradientUnits="userSpaceOnUse">
<stop stop-color="#000510"/>
<stop offset="0.5" stop-color="#E30278"/>
<stop offset="1" stop-color="#000510"/>
</linearGradient>
<linearGradient id="paint2_linear_1_307" x1="-7.79997" y1="384.482" x2="587" y2="384" gradientUnits="userSpaceOnUse">
<stop stop-color="#000510"/>
<stop offset="0.489583" stop-color="#7E4BD0"/>
<stop offset="1" stop-color="#000510"/>
</linearGradient>
<linearGradient id="paint3_linear_1_307" x1="-14.17" y1="186.337" x2="635.084" y2="178.654" gradientUnits="userSpaceOnUse">
<stop stop-color="#000510"/>
<stop offset="0.494792" stop-color="#326DC9"/>
<stop offset="1" stop-color="#000510"/>
</linearGradient>
<linearGradient id="paint4_linear_1_307" x1="-12.21" y1="312.337" x2="611.07" y2="312.337" gradientUnits="userSpaceOnUse">
<stop stop-color="#000510"/>
<stop offset="0.494792" stop-color="#3DC7C8"/>
<stop offset="1" stop-color="#000510"/>
</linearGradient>
<clipPath id="clip0_1_307">
<rect width="48" height="48" fill="white" transform="translate(143 264.864)"/>
</clipPath>
</defs>
</svg>
