<svg class="mb-3" fill="oklch(0.585 0.233 277.117)" xmlns="http://www.w3.org/2000/svg" width="24" height="24"><path fill-opacity=".48" d="m3.031 9.05-.593-.805 1.609-1.187.594.804a6.966 6.966 0 0 1 0 8.276l-.594.805-1.61-1.188.594-.805a4.966 4.966 0 0 0 0-5.9Z"></path><path d="m7.456 6.676-.535-.845 1.69-1.07.534.844a11.944 11.944 0 0 1 0 12.789l-.535.845-1.69-1.071.536-.845a9.944 9.944 0 0 0 0-10.647Z"></path><path d="m11.888 4.35-.514-.858 1.717-1.027.513.858a16.9 16.9 0 0 1 2.4 8.677 16.9 16.9 0 0 1-2.4 8.676l-.513.859-1.717-1.028.514-.858A14.9 14.9 0 0 0 14.003 12a14.9 14.9 0 0 0-2.115-7.65Z" opacity=".48"></path><path d="m16.321 2-.5-.866 1.733-1 .5.866A22 22 0 0 1 21 12c0 3.852-1.017 7.636-2.948 10.97l-.502.865-1.73-1.003.501-.865A19.878 19.878 0 0 0 19 12a20 20 0 0 0-2.679-10Z"></path></svg>